<svg width="1440" height="900" viewBox="0 0 1440 900" fill="none" xmlns="http://www.w3.org/2000/svg">
<path fill-rule="evenodd" clip-rule="evenodd" d="M1004.5 838.069C1081.3 831.562 1139.9 798.751 1194.35 840.146C1248.79 881.542 1306.31 971.702 1143.69 1059.67C981.078 1147.64 996.377 1205.37 837.746 1260.74C679.11 1316.09 532.953 1183.87 544.231 1050.63C555.508 917.397 665.451 855.703 754.923 833.753C844.394 811.803 927.705 844.576 1004.5 838.069Z" fill="white"/>
<path d="M140.441 825.986L-1.72819 912.598L-5.65122 746.17L140.441 825.986Z" stroke="white" stroke-width="3"/>
<line y1="-1.5" x2="499.514" y2="-1.5" transform="matrix(0.871053 0.491189 -0.494248 0.869321 -161.102 172.543)" stroke="white" stroke-width="3"/>
<line y1="-1.5" x2="499.514" y2="-1.5" transform="matrix(0.871053 0.491189 -0.494248 0.869321 -346 139.899)" stroke="white" stroke-width="3"/>
<line x1="11.767" y1="862.61" x2="469.392" y2="1134.9" stroke="white" stroke-width="3"/>
<line x1="1244.61" y1="14.1524" x2="1664.19" y2="266.763" stroke="white" stroke-width="3"/>
<line x1="1012.61" y1="-55.2924" x2="1342.45" y2="139.019" stroke="white" stroke-width="3"/>
<path d="M1214.42 484.875L1304.4 539.975L1211.69 590.347L1214.42 484.875Z" stroke="white" stroke-width="3"/>
<rect x="267.887" y="634.492" width="48.3449" height="48.3449" transform="rotate(-54.9816 267.887 634.492)" stroke="white" stroke-width="3"/>
<rect x="1148.91" y="214.899" width="37.2739" height="37.2739" transform="rotate(41.9372 1148.91 214.899)" stroke="white" stroke-width="3"/>
<path d="M277.197 183.07L236.457 156.971L279.43 134.739L277.197 183.07Z" stroke="white" stroke-width="3"/>
<path fill-rule="evenodd" clip-rule="evenodd" d="M1195.37 759.112L1178.06 752.605L1154.47 760.307L1168.48 790.619L1178.89 784.798C1181.72 783.217 1184.92 782.422 1188.16 782.506L1195.16 782.68L1195.37 759.112Z" fill="white" stroke="#31434D"/>
<path fill-rule="evenodd" clip-rule="evenodd" d="M1168.14 755.284L1181.67 758.175C1185.18 758.933 1188.21 761.182 1190 764.359C1191.84 767.671 1193.09 771.283 1193.66 775.039L1194.81 782.555C1201.19 781.898 1207.52 784.526 1211.69 789.548L1223.24 803.477C1225.1 805.724 1227.72 807.195 1230.58 807.596C1231.97 807.796 1233.25 806.802 1233.41 805.382C1233.47 804.916 1233.4 804.453 1233.22 804.023L1221.3 776.137C1219.25 771.34 1215.7 767.371 1211.2 764.857C1208.78 763.501 1206.99 762.426 1205.8 761.632C1203.7 760.205 1200.41 757.498 1195.92 753.527L1208.97 747.108L1204.31 737.464L1186.05 741.887C1182.7 742.699 1179.78 744.717 1177.81 747.581C1175.8 750.492 1173.11 752.822 1169.95 754.369L1168.14 755.284Z" fill="#31434D"/>
<path fill-rule="evenodd" clip-rule="evenodd" d="M1082.71 780.9L1153.61 753.922C1159.16 758.709 1164.04 764.781 1168.26 772.115C1172.49 779.449 1175.15 786.783 1176.23 794.117L1107.68 826.413L1082.71 780.9Z" fill="#8BA4CF"/>
<path fill-rule="evenodd" clip-rule="evenodd" d="M1080.89 781.905L1107.68 826.416L1031.74 854.891C1014.99 861.175 996.427 852.356 990.291 835.188C989.761 833.714 989.335 832.205 989.024 830.66C983.763 805.227 987.862 785.737 997.567 756.389C1007.27 727.042 1018.45 700.524 1022.54 688.686C1025.27 680.797 1026.75 672.025 1027.01 662.38C1034.8 663.901 1044.66 664.113 1056.58 663.028C1068.5 661.932 1082.29 659.114 1097.96 654.551C1107.36 661.955 1113.86 671.011 1117.47 681.705C1119.82 688.674 1120.99 695.713 1121 702.835C1121.01 711.949 1122.89 720.957 1126.53 729.282L1148.85 780.337C1154.11 792.375 1161.32 803.435 1170.16 813.033L1258.07 908.516C1254.44 916.534 1249.76 923.031 1244 927.983C1238.24 932.935 1231.94 937.25 1225.09 940.929L1107.7 826.392L1064.09 753.937L1050.78 795.901L1080.89 781.905Z" fill="#C3D6F9"/>
<mask id="mask0" mask-type="alpha" maskUnits="userSpaceOnUse" x="986" y="654" width="273" height="287">
<path fill-rule="evenodd" clip-rule="evenodd" d="M1080.89 781.905L1107.68 826.416L1031.74 854.891C1014.99 861.175 996.427 852.356 990.291 835.188C989.761 833.714 989.335 832.205 989.024 830.66C983.763 805.227 987.862 785.737 997.567 756.389C1007.27 727.042 1018.45 700.524 1022.54 688.686C1025.27 680.797 1026.75 672.025 1027.01 662.38C1034.8 663.901 1044.66 664.113 1056.58 663.028C1068.5 661.932 1082.29 659.114 1097.96 654.551C1107.36 661.955 1113.86 671.011 1117.47 681.705C1119.82 688.674 1120.99 695.713 1121 702.835C1121.01 711.949 1122.89 720.957 1126.53 729.282L1148.85 780.337C1154.11 792.375 1161.32 803.435 1170.16 813.033L1258.07 908.516C1254.44 916.534 1249.76 923.031 1244 927.983C1238.24 932.935 1231.94 937.25 1225.09 940.929L1107.7 826.392L1064.09 753.937L1050.78 795.901L1080.89 781.905Z" fill="white"/>
</mask>
<g mask="url(#mask0)">
<path fill-rule="evenodd" clip-rule="evenodd" d="M1050.76 795.924L1080.82 781.905L1107.68 826.416L1046.81 835.919C1038.02 837.287 1029.79 831.097 1028.45 822.088C1028.11 819.86 1028.23 817.573 1028.79 815.391L1046.04 748.419C1046.48 746.732 1046.87 745.035 1047.24 743.325L1054.46 709.084L1064.06 753.972L1050.76 795.924Z" fill="#8BA4CF"/>
</g>
<mask id="mask1" mask-type="alpha" maskUnits="userSpaceOnUse" x="986" y="654" width="273" height="287">
<path fill-rule="evenodd" clip-rule="evenodd" d="M1080.89 781.905L1107.68 826.416L1031.74 854.891C1014.99 861.175 996.427 852.356 990.291 835.188C989.761 833.714 989.335 832.205 989.024 830.66C983.763 805.227 987.862 785.737 997.567 756.389C1007.27 727.042 1018.45 700.524 1022.54 688.686C1025.27 680.797 1026.75 672.025 1027.01 662.38C1034.8 663.901 1044.66 664.113 1056.58 663.028C1068.5 661.932 1082.29 659.114 1097.96 654.551C1107.36 661.955 1113.86 671.011 1117.47 681.705C1119.82 688.674 1120.99 695.713 1121 702.835C1121.01 711.949 1122.89 720.957 1126.53 729.282L1148.85 780.337C1154.11 792.375 1161.32 803.435 1170.16 813.033L1258.07 908.516C1254.44 916.534 1249.76 923.031 1244 927.983C1238.24 932.935 1231.94 937.25 1225.09 940.929L1107.7 826.392L1064.09 753.937L1050.78 795.901L1080.89 781.905Z" fill="white"/>
</mask>
<g mask="url(#mask1)">
<path d="M1249.35 922.665L1146.56 816.24C1135.29 804.567 1126.53 790.618 1120.82 775.278L1078.92 662.568M1107.68 826.415L1046.81 835.919C1038.02 837.287 1029.79 831.096 1028.45 822.088C1028.11 819.86 1028.23 817.572 1028.79 815.391L1046.04 748.418C1046.48 746.732 1046.87 745.034 1047.24 743.325L1054.46 709.084L1107.68 826.415ZM1064.07 753.96L1050.76 795.924L1080.82 781.905L1064.07 753.96Z" stroke="white"/>
</g>
<path fill-rule="evenodd" clip-rule="evenodd" d="M1023.78 491.47C1030.81 484.702 1039.33 482.426 1049.35 484.643C1064.39 487.968 1069.26 497.153 1069.26 518.884C1078.1 520.216 1083.39 526.43 1085.11 537.513C1096.88 540.261 1102.76 547.96 1102.76 560.623H1013.78C1014.64 549.08 1017.97 541.381 1023.78 537.513C1018.98 528.823 1021 521.1 1029.83 514.344L1018.43 501.846C1016.96 500.23 1016.32 498.002 1016.72 495.832C1017.1 493.769 1018.73 492.189 1020.75 491.894L1023.78 491.47Z" fill="#2C434E"/>
<path fill-rule="evenodd" clip-rule="evenodd" d="M1064.37 514.544C1064.67 510.583 1061.02 508.955 1058.43 510.052C1056.71 510.783 1055.59 511.821 1055.09 513.141C1051.63 513.259 1047.05 512.021 1041.33 509.427C1035.61 506.833 1030.57 503.579 1026.22 499.652C1026.53 515.806 1027.17 525.805 1028.12 529.66C1029.42 534.919 1034.04 538.598 1039.34 538.598H1039.61V553.808C1039.61 559.491 1044.11 564.09 1049.65 564.09C1055.2 564.09 1059.69 559.48 1059.69 553.808V522.173C1062.62 519.732 1064.17 517.185 1064.37 514.544Z" fill="white" stroke="#31434D"/>
<mask id="mask2" mask-type="alpha" maskUnits="userSpaceOnUse" x="1026" y="499" width="39" height="66">
<path fill-rule="evenodd" clip-rule="evenodd" d="M1064.37 514.544C1064.67 510.583 1061.02 508.955 1058.43 510.052C1056.71 510.783 1055.59 511.821 1055.09 513.141C1051.63 513.259 1047.05 512.021 1041.33 509.427C1035.61 506.833 1030.57 503.579 1026.22 499.652C1026.53 515.806 1027.17 525.805 1028.12 529.66C1029.42 534.919 1034.04 538.598 1039.34 538.598H1039.61V553.808C1039.61 559.491 1044.11 564.09 1049.65 564.09C1055.2 564.09 1059.69 559.48 1059.69 553.808V522.173C1062.62 519.732 1064.17 517.185 1064.37 514.544Z" fill="white"/>
</mask>
<g mask="url(#mask2)">
<path fill-rule="evenodd" clip-rule="evenodd" d="M1040.14 538.043C1044.45 537.559 1047.51 536.168 1049.36 533.869L1040.14 549.834V538.043ZM1034.89 529.294L1041.34 528.692C1041.11 530.39 1040.17 531.322 1038.51 531.499C1036.85 531.675 1035.64 530.944 1034.89 529.294Z" fill="#2C434E"/>
</g>
<mask id="mask3" mask-type="alpha" maskUnits="userSpaceOnUse" x="1026" y="499" width="39" height="66">
<path fill-rule="evenodd" clip-rule="evenodd" d="M1064.37 514.544C1064.67 510.583 1061.02 508.955 1058.43 510.052C1056.71 510.783 1055.59 511.821 1055.09 513.141C1051.63 513.259 1047.05 512.021 1041.33 509.427C1035.61 506.833 1030.57 503.579 1026.22 499.652C1026.53 515.806 1027.17 525.805 1028.12 529.66C1029.42 534.919 1034.04 538.598 1039.34 538.598H1039.61V553.808C1039.61 559.491 1044.11 564.09 1049.65 564.09C1055.2 564.09 1059.69 559.48 1059.69 553.808V522.173C1062.62 519.732 1064.17 517.185 1064.37 514.544Z" fill="white"/>
</mask>
<g mask="url(#mask3)">
<path d="M1040.88 519.473C1041.64 519.473 1042.26 518.84 1042.26 518.058C1042.26 517.277 1041.64 516.644 1040.88 516.644C1040.12 516.644 1039.5 517.277 1039.5 518.058C1039.5 518.84 1040.12 519.473 1040.88 519.473Z" fill="#212A2F"/>
</g>
<mask id="mask4" mask-type="alpha" maskUnits="userSpaceOnUse" x="1026" y="499" width="39" height="66">
<path fill-rule="evenodd" clip-rule="evenodd" d="M1064.37 514.544C1064.67 510.583 1061.02 508.955 1058.43 510.052C1056.71 510.783 1055.59 511.821 1055.09 513.141C1051.63 513.259 1047.05 512.021 1041.33 509.427C1035.61 506.833 1030.57 503.579 1026.22 499.652C1026.53 515.806 1027.17 525.805 1028.12 529.66C1029.42 534.919 1034.04 538.598 1039.34 538.598H1039.61V553.808C1039.61 559.491 1044.11 564.09 1049.65 564.09C1055.2 564.09 1059.69 559.48 1059.69 553.808V522.173C1062.62 519.732 1064.17 517.185 1064.37 514.544Z" fill="white"/>
</mask>
<g mask="url(#mask4)">
<path d="M1029.83 519.473C1030.59 519.473 1031.21 518.84 1031.21 518.058C1031.21 517.277 1030.59 516.644 1029.83 516.644C1029.06 516.644 1028.45 517.277 1028.45 518.058C1028.45 518.84 1029.06 519.473 1029.83 519.473Z" fill="#212A2F"/>
</g>
<mask id="mask5" mask-type="alpha" maskUnits="userSpaceOnUse" x="1026" y="499" width="39" height="66">
<path fill-rule="evenodd" clip-rule="evenodd" d="M1064.37 514.544C1064.67 510.583 1061.02 508.955 1058.43 510.052C1056.71 510.783 1055.59 511.821 1055.09 513.141C1051.63 513.259 1047.05 512.021 1041.33 509.427C1035.61 506.833 1030.57 503.579 1026.22 499.652C1026.53 515.806 1027.17 525.805 1028.12 529.66C1029.42 534.919 1034.04 538.598 1039.34 538.598H1039.61V553.808C1039.61 559.491 1044.11 564.09 1049.65 564.09C1055.2 564.09 1059.69 559.48 1059.69 553.808V522.173C1062.62 519.732 1064.17 517.185 1064.37 514.544Z" fill="white"/>
</mask>
<g mask="url(#mask5)">
<path d="M1028.13 511.725C1030.48 510.793 1032.47 510.911 1034.13 512.102M1061.9 511.807C1060.44 511.229 1059.15 511.406 1058.03 512.338C1056.92 513.269 1056.38 514.908 1056.41 517.243L1059.75 515.875L1061.9 511.807ZM1035.65 517.184C1035.69 518.61 1035.59 519.731 1035.35 520.556C1034.99 521.794 1033.28 523.386 1033.77 524.966C1034.11 526.027 1035.51 526.239 1038 525.626L1035.65 517.184Z" stroke="#2C434E" stroke-width="0.8"/>
</g>
<mask id="mask6" mask-type="alpha" maskUnits="userSpaceOnUse" x="1026" y="499" width="39" height="66">
<path fill-rule="evenodd" clip-rule="evenodd" d="M1064.37 514.544C1064.67 510.583 1061.02 508.955 1058.43 510.052C1056.71 510.783 1055.59 511.821 1055.09 513.141C1051.63 513.259 1047.05 512.021 1041.33 509.427C1035.61 506.833 1030.57 503.579 1026.22 499.652C1026.53 515.806 1027.17 525.805 1028.12 529.66C1029.42 534.919 1034.04 538.598 1039.34 538.598H1039.61V553.808C1039.61 559.491 1044.11 564.09 1049.65 564.09C1055.2 564.09 1059.69 559.48 1059.69 553.808V522.173C1062.62 519.732 1064.17 517.185 1064.37 514.544Z" fill="white"/>
</mask>
<g mask="url(#mask6)">
<path d="M1044.62 511.88C1042.46 510.807 1040.31 510.877 1038.21 512.104" stroke="#2C434E" stroke-width="0.8"/>
</g>
<path d="M1060.29 524.767C1061.82 524.767 1063.05 523.5 1063.05 521.937C1063.05 520.374 1061.82 519.107 1060.29 519.107C1058.76 519.107 1057.53 520.374 1057.53 521.937C1057.53 523.5 1058.76 524.767 1060.29 524.767Z" fill="#00DDBA"/>
<path d="M1029.92 522.305C1032.46 522.305 1034.52 520.193 1034.52 517.588C1034.52 514.984 1032.46 512.872 1029.92 512.872C1027.37 512.872 1025.31 514.984 1025.31 517.588C1025.31 520.193 1027.37 522.305 1029.92 522.305Z" stroke="#212A2F"/>
<path d="M1041.27 522.305C1043.81 522.305 1045.87 520.194 1045.87 517.588C1045.87 514.983 1043.81 512.872 1041.27 512.872C1038.72 512.872 1036.66 514.983 1036.66 517.588C1036.66 520.194 1038.72 522.305 1041.27 522.305Z" stroke="#212A2F"/>
<path d="M1034.43 517.118H1036.59" stroke="#212A2F"/>
<path d="M1045.88 517.117L1054.69 512.872" stroke="#212A2F"/>
<path fill-rule="evenodd" clip-rule="evenodd" d="M1114.64 624.363L1152.1 603.505C1167.29 619.647 1174.23 633.56 1172.94 645.233C1171.66 656.906 1152.23 649.949 1114.64 624.363ZM964.652 640.163V640.906C964.652 650.527 969.799 659.37 978.065 663.945C980.667 665.384 991.478 668.662 1010.49 673.779C1018.48 675.925 1026.66 671.032 1028.77 662.849C1029.05 661.764 1029.21 660.667 1029.25 659.547L1030.47 627.122H993.608L993.182 637.805L986.205 633.76L964.652 640.163Z" fill="white" stroke="#31434D"/>
<path fill-rule="evenodd" clip-rule="evenodd" d="M1004.3 564.112C999.851 569.3 996.961 575.702 995.971 582.529L989.523 627.111H1023.7L1027.03 662.566C1033.98 666.21 1044.37 667.247 1058.21 665.691C1072.05 664.134 1085.3 660.409 1097.96 654.548L1094.76 642.298L1094.02 631.898C1093.3 621.84 1093.87 611.724 1095.66 601.807L1095.72 601.489L1122.21 622.371L1153.6 603.505L1111.04 558.653C1105.68 553.017 1098.34 549.833 1090.66 549.833H1083.9C1080.4 549.833 1076.9 549.998 1073.41 550.328L1021.38 555.198C1014.78 555.823 1008.67 559.006 1004.3 564.112Z" fill="white"/>
<mask id="mask7" mask-type="alpha" maskUnits="userSpaceOnUse" x="989" y="549" width="165" height="118">
<path fill-rule="evenodd" clip-rule="evenodd" d="M1004.3 564.112C999.851 569.3 996.961 575.702 995.971 582.529L989.523 627.111H1023.7L1027.03 662.566C1033.98 666.21 1044.37 667.247 1058.21 665.691C1072.05 664.134 1085.3 660.409 1097.96 654.548L1094.76 642.298L1094.02 631.898C1093.3 621.84 1093.87 611.724 1095.66 601.807L1095.72 601.489L1122.21 622.371L1153.6 603.505L1111.04 558.653C1105.68 553.017 1098.34 549.833 1090.66 549.833H1083.9C1080.4 549.833 1076.9 549.998 1073.41 550.328L1021.38 555.198C1014.78 555.823 1008.67 559.006 1004.3 564.112Z" fill="white"/>
</mask>
<g mask="url(#mask7)">
<path fill-rule="evenodd" clip-rule="evenodd" d="M1026.83 662.732C1034.1 666.505 1044.56 667.79 1058.19 666.564C1071.82 665.338 1085.26 661.34 1098.5 654.549C1093.49 641.567 1092.55 623.881 1095.71 601.501L1080.04 614.919C1075.7 618.634 1070.31 620.827 1064.67 621.18L1037.11 622.902C1028.24 623.456 1020.41 617.03 1019 608.045L1016.99 595.229L1010.9 619.565L1018.33 627.111H1023.67L1026.83 662.732Z" fill="#EFF4FF"/>
</g>
<mask id="mask8" mask-type="alpha" maskUnits="userSpaceOnUse" x="989" y="549" width="165" height="118">
<path fill-rule="evenodd" clip-rule="evenodd" d="M1004.3 564.112C999.851 569.3 996.961 575.702 995.971 582.529L989.523 627.111H1023.7L1027.03 662.566C1033.98 666.21 1044.37 667.247 1058.21 665.691C1072.05 664.134 1085.3 660.409 1097.96 654.548L1094.76 642.298L1094.02 631.898C1093.3 621.84 1093.87 611.724 1095.66 601.807L1095.72 601.489L1122.21 622.371L1153.6 603.505L1111.04 558.653C1105.68 553.017 1098.34 549.833 1090.66 549.833H1083.9C1080.4 549.833 1076.9 549.998 1073.41 550.328L1021.38 555.198C1014.78 555.823 1008.67 559.006 1004.3 564.112Z" fill="white"/>
</mask>
<g mask="url(#mask8)">
<path d="M1084.3 590.927L1102.77 607.304" stroke="#31434D"/>
<path d="M1004.3 564.112C999.851 569.3 996.961 575.702 995.971 582.529L989.523 627.111H1023.7L1027.03 662.566C1033.98 666.21 1044.37 667.247 1058.21 665.691C1072.05 664.134 1085.3 660.409 1097.96 654.548L1094.76 642.298L1094.02 631.898C1093.3 621.84 1093.87 611.724 1095.66 601.807L1095.72 601.489L1122.21 622.371L1153.6 603.505L1111.04 558.653C1105.68 553.017 1098.34 549.833 1090.66 549.833H1083.9C1080.4 549.833 1076.9 549.998 1073.41 550.328L1021.38 555.198C1014.78 555.823 1008.67 559.006 1004.3 564.112Z" stroke="#31434D" stroke-width="0.8"/>
<path fill-rule="evenodd" clip-rule="evenodd" d="M1039.61 553.015L1036.3 562.106C1034.99 565.714 1036.77 569.735 1040.3 571.091C1041.2 571.432 1042.16 571.574 1043.13 571.515C1049.46 571.102 1054.89 566.763 1056.83 560.573L1059.7 551.353L1039.61 553.015Z" fill="white" stroke="#31434D"/>
</g>
<path fill-rule="evenodd" clip-rule="evenodd" d="M963.601 578.767H1009.46C1011.05 578.767 1012.43 579.875 1012.81 581.455L1027.56 642.945C1027.97 644.678 1027.07 646.447 1025.45 647.083L1023.01 648.05C1022.56 648.227 1022.08 648.31 1021.59 648.286L978.925 646.093C977.451 646.022 976.196 644.996 975.782 643.546L959.272 585.57C959.041 584.768 959.099 583.896 959.433 583.129L960.435 580.842C961.01 579.58 962.242 578.767 963.601 578.767Z" fill="#31434D"/>
<path fill-rule="evenodd" clip-rule="evenodd" d="M962.464 581.124H1007.16C1008.75 581.124 1010.13 582.232 1010.51 583.812L1024.94 643.946C1025.4 645.845 1024.26 647.755 1022.4 648.226C1022.14 648.297 1021.86 648.332 1021.57 648.332H976.879C975.29 648.332 973.908 647.224 973.528 645.644L959.102 585.51C958.642 583.612 959.782 581.702 961.635 581.23C961.911 581.159 962.188 581.124 962.464 581.124Z" fill="#AAF0DA"/>
<path d="M986.837 614.138C991.288 614.138 994.896 610.443 994.896 605.885C994.896 601.326 991.288 597.631 986.837 597.631C982.386 597.631 978.777 601.326 978.777 605.885C978.777 610.443 982.386 614.138 986.837 614.138Z" fill="white"/>
<path d="M966.115 590.558C967.387 590.558 968.418 589.502 968.418 588.2C968.418 586.898 967.387 585.842 966.115 585.842C964.843 585.842 963.812 586.898 963.812 588.2C963.812 589.502 964.843 590.558 966.115 590.558Z" fill="#31434D"/>
<path fill-rule="evenodd" clip-rule="evenodd" d="M1055.06 612.194C1053.32 613.279 1051.08 613.008 1049.66 611.522L1045.49 607.195C1044.27 605.933 1043.48 604.283 1043.27 602.526L1043.12 601.311C1042.99 600.333 1043.16 599.33 1043.6 598.446L1042.82 596.795C1041.93 594.932 1041.96 592.751 1042.92 590.923L1025.56 582.894C1024.29 582.304 1023.36 581.161 1023.04 579.769C1022.86 579.026 1023.31 578.284 1024.03 578.107C1024.23 578.059 1024.45 578.059 1024.66 578.107L1049.89 584.332C1055.18 585.641 1060.03 588.436 1063.86 592.397L1069.74 598.47C1085.35 604.011 1095.56 607.384 1100.37 608.598C1133.84 617.017 1154.86 620.696 1161.47 624.445C1174.17 631.661 1174.17 642.591 1172.68 647.65C1171.17 652.708 1166.94 658.214 1157.2 658.886C1150.71 659.334 1142.61 656.799 1132.91 651.293L1063.69 612.182C1061.73 612.748 1060.21 613.02 1059.13 613.02C1058.07 613.031 1056.7 612.76 1055.06 612.194Z" fill="white" stroke="#31434D"/>
<path d="M1047.13 604.27L1055.36 612.441" stroke="#333333"/>
<path d="M1041.97 590.438L1048.72 592.961" stroke="#333333"/>
<path d="M1043.61 598.446C1045.37 596.866 1047.22 596.96 1049.15 598.741" stroke="#333333"/>
<path fill-rule="evenodd" clip-rule="evenodd" d="M985.505 639.969L992.218 625.053C993.093 623.12 992.943 620.867 991.826 619.063L992.022 618.592C992.966 616.316 992.287 613.687 990.387 612.178C991.734 609.76 991.412 606.742 989.581 604.678L989.501 604.584L991.631 601.577C992.494 600.363 992.448 598.7 991.515 597.533C990.744 596.566 989.351 596.437 988.418 597.227C988.349 597.286 988.28 597.356 988.211 597.427L980.244 606.093C977.757 608.805 975.385 611.623 973.163 614.559L967.763 621.669L965.795 613.569L964.977 622.235C964.54 626.857 964.367 631.491 964.471 636.137L964.563 640.782C964.643 644.355 967.291 647.315 970.757 647.692L972.726 647.904C975.374 648.187 978.045 647.55 980.301 646.077C982.57 644.591 984.377 642.468 985.505 639.969Z" fill="white" stroke="#31434D"/>
<path d="M989.854 604.489L979.723 616.221" stroke="#333333"/>
<path d="M990.677 612.247L983.723 620.465" stroke="#333333"/>
<path d="M992.024 619.546L986.164 627.682" stroke="#333333"/>
<path d="M966.094 624.84L969.076 619.546" stroke="#333333"/>
<path fill-rule="evenodd" clip-rule="evenodd" d="M1059.75 524.769C1050.86 542.691 1051.8 555.979 1062.53 564.622C1062.26 573.63 1066.59 578.783 1075.53 580.092C1088.93 582.061 1097.44 559.741 1086.9 549.836C1079.89 543.233 1070.84 534.873 1059.75 524.769ZM1023.79 537.526C1011.5 542.927 1006.96 550.638 1010.16 560.637C1014.98 575.635 1035.44 567.711 1039.54 552.489L1023.79 537.526Z" fill="#2C434E"/>
<path fill-rule="evenodd" clip-rule="evenodd" d="M1040.15 550.293C1040.42 551.791 1040.12 553.536 1039.27 555.54C1038.41 557.545 1043.61 556.967 1054.88 553.819C1054.5 552.475 1054.19 551.071 1053.93 549.621L1040.15 550.293Z" fill="white"/>
<path d="M330 348.5H380.883C383.921 348.5 386.383 350.962 386.383 354V391C386.383 394.038 383.921 396.5 380.883 396.5H330C326.962 396.5 324.5 394.038 324.5 391V354C324.5 350.962 326.962 348.5 330 348.5Z" fill="white" stroke="#0E1821"/>
<g clip-path="url(#clip0)">
<path d="M341.767 364.468C341.666 364.367 341.666 364.199 341.767 364.095C341.871 363.994 342.035 363.994 342.14 364.095L344.377 366.336L346.618 364.095C346.718 363.994 346.886 363.994 346.987 364.095C347.091 364.199 347.091 364.367 346.987 364.468L344.75 366.705L346.987 368.946C347.091 369.047 347.091 369.214 346.987 369.319C346.886 369.419 346.718 369.419 346.618 369.319L344.377 367.078L342.14 369.319C342.035 369.419 341.871 369.419 341.767 369.319C341.666 369.214 341.666 369.046 341.767 368.946L344.004 366.705L341.767 364.468Z" fill="#31434D"/>
</g>
<g clip-path="url(#clip1)">
<path d="M363.802 364.468C363.701 364.367 363.701 364.199 363.802 364.095C363.906 363.994 364.071 363.994 364.175 364.095L366.412 366.336L368.653 364.095C368.753 363.994 368.921 363.994 369.022 364.095C369.126 364.199 369.126 364.367 369.022 364.468L366.785 366.705L369.022 368.946C369.126 369.047 369.126 369.214 369.022 369.319C368.921 369.419 368.753 369.419 368.653 369.319L366.412 367.078L364.175 369.319C364.071 369.419 363.906 369.419 363.802 369.319C363.701 369.214 363.701 369.046 363.802 368.946L366.039 366.705L363.802 364.468Z" fill="#31434D"/>
</g>
<line x1="341.148" y1="382.331" x2="369.097" y2="382.331" stroke="#31434D"/>
<path d="M324.816 352.9C324.816 350.645 326.645 348.816 328.9 348.816H381.983C384.238 348.816 386.066 350.645 386.066 352.9H324.816Z" fill="#AAF0DA"/>
<path fill-rule="evenodd" clip-rule="evenodd" d="M241.132 466.739L248.747 468.285L246.725 484.174C242.844 482.226 239.173 481.074 235.708 480.708L241.132 466.739Z" fill="white" stroke="#31434D"/>
<path fill-rule="evenodd" clip-rule="evenodd" d="M242.433 466.866L239.627 476.29C239.262 477.52 239.208 478.823 239.473 480.078L239.648 480.913C239.748 481.39 239.447 481.854 238.971 481.96C238.906 481.971 238.842 481.983 238.776 481.976L230.327 481.86C226.745 481.811 223.238 482.886 220.3 484.94L218.652 486.094C216.764 487.409 215.208 489.152 214.103 491.169L213.724 491.86C212.974 493.235 211.341 493.874 209.857 493.373C209.577 493.821 209.002 493.975 208.534 493.728L208.413 493.664C207.876 493.38 207.641 492.732 207.881 492.173C212.13 482.192 217.409 473.43 223.722 465.891L222.661 465.228L228.083 456.55L229.956 457.721C231.871 458.917 233.616 460.376 235.136 462.046C236.648 463.712 238.479 465.051 240.519 465.992L242.433 466.866Z" fill="#31434D"/>
<mask id="mask9" mask-type="alpha" maskUnits="userSpaceOnUse" x="205" y="456" width="43" height="49">
<path fill-rule="evenodd" clip-rule="evenodd" d="M242.433 466.866L239.627 476.29C239.262 477.52 239.208 478.823 239.473 480.078L239.648 480.913C239.748 481.39 239.447 481.854 238.971 481.96C238.906 481.971 238.842 481.983 238.776 481.976L230.327 481.86C226.745 481.811 223.238 482.886 220.3 484.94L218.652 486.094C216.764 487.409 215.208 489.152 214.103 491.169L213.724 491.86C212.974 493.235 211.341 493.874 209.857 493.373C209.577 493.821 209.002 493.975 208.534 493.728L208.413 493.664C207.876 493.38 207.641 492.732 207.881 492.173C212.13 482.192 217.409 473.43 223.722 465.891L222.661 465.228L228.083 456.55L229.956 457.721C231.871 458.917 233.616 460.376 235.136 462.046C236.648 463.712 238.479 465.051 240.519 465.992L242.433 466.866Z" fill="white"/>
</mask>
<g mask="url(#mask9)">
<path fill-rule="evenodd" clip-rule="evenodd" d="M231.259 458.53C228.528 462.955 225.936 466.55 223.477 469.323C219.791 473.479 212.364 485.116 209.853 493.367C209.868 494.477 209.873 495.032 209.873 495.032L206.45 493.188C212.435 480.327 217.409 471.685 221.374 467.266C221.938 465.313 222.215 464.334 222.215 464.334C222.215 464.334 224.067 461.371 227.772 455.441L231.664 457.872L231.255 458.527L231.259 458.53Z" fill="#31434D" stroke="white" stroke-width="0.8"/>
</g>
<path fill-rule="evenodd" clip-rule="evenodd" d="M216.68 558.834L219.9 551.762L234.926 557.307C232.155 560.651 230.207 563.968 229.071 567.262L216.68 558.834Z" fill="white" stroke="#31434D"/>
<path fill-rule="evenodd" clip-rule="evenodd" d="M217.095 557.598L225.647 562.453C226.763 563.085 228.021 563.431 229.303 563.455L230.156 563.472C230.644 563.483 231.027 563.88 231.024 564.367C231.02 564.433 231.017 564.499 230.996 564.561L228.982 572.767C228.128 576.247 228.387 579.906 229.728 583.23L230.481 585.096C231.338 587.231 232.686 589.139 234.403 590.669L234.99 591.195C236.162 592.235 236.417 593.969 235.595 595.303C235.968 595.676 235.989 596.271 235.643 596.671L235.554 596.775C235.156 597.235 234.472 597.318 233.981 596.958C225.212 590.573 217.862 583.458 211.936 575.611L211.052 576.496L203.816 569.26L205.378 567.698C206.974 566.102 208.788 564.73 210.758 563.624C212.721 562.526 214.438 561.043 215.813 559.267L217.095 557.598Z" fill="#31434D"/>
<mask id="mask10" mask-type="alpha" maskUnits="userSpaceOnUse" x="203" y="557" width="34" height="41">
<path fill-rule="evenodd" clip-rule="evenodd" d="M217.095 557.598L225.647 562.453C226.763 563.085 228.021 563.431 229.303 563.455L230.156 563.472C230.644 563.483 231.027 563.88 231.024 564.367C231.02 564.433 231.017 564.499 230.996 564.561L228.982 572.767C228.128 576.247 228.387 579.906 229.728 583.23L230.481 585.096C231.338 587.231 232.686 589.139 234.403 590.669L234.99 591.195C236.162 592.235 236.417 593.969 235.595 595.303C235.968 595.676 235.989 596.271 235.643 596.671L235.554 596.775C235.156 597.235 234.472 597.318 233.981 596.958C225.212 590.573 217.862 583.458 211.936 575.611L211.052 576.496L203.816 569.26L205.378 567.698C206.974 566.102 208.788 564.73 210.758 563.624C212.721 562.526 214.438 561.043 215.813 559.267L217.095 557.598Z" fill="white"/>
</mask>
<g mask="url(#mask10)">
<path fill-rule="evenodd" clip-rule="evenodd" d="M206.458 566.609C210.155 570.265 213.075 573.6 215.224 576.62C218.445 581.146 228.113 591.001 235.587 595.303C236.672 595.538 237.214 595.659 237.214 595.659L234.647 598.578C223.462 589.854 216.161 583.064 212.747 578.206C210.971 577.217 210.079 576.727 210.079 576.727C210.079 576.727 207.609 574.256 202.664 569.311L205.909 566.067L206.455 566.613L206.458 566.609Z" fill="#31434D" stroke="white" stroke-width="0.8"/>
</g>
<path fill-rule="evenodd" clip-rule="evenodd" d="M282.51 467.982L249.301 465.35C247.45 468.112 246.046 471.336 245.087 475.028C244.132 478.718 243.867 482.21 244.288 485.505L278.476 490.739L282.51 467.982Z" fill="#8BA4CF"/>
<path fill-rule="evenodd" clip-rule="evenodd" d="M282.51 467.982L278.482 490.737L315.457 493.388C323.616 493.971 330.707 487.835 331.29 479.677C331.339 478.977 331.341 478.275 331.292 477.572C330.47 465.968 326.261 458.096 318.366 446.695C310.471 435.294 302.271 425.297 299.012 420.721C296.836 417.67 295.101 414.085 293.799 409.97C290.554 411.612 286.235 412.947 280.849 413.983C275.462 415.02 267.073 413.013 255.688 407.966C251.586 418.002 249.398 425.548 249.131 430.607C248.926 434.433 249.434 438.1 250.647 441.62C251.588 444.355 252.118 447.212 252.219 450.101L252.934 470.978C253.247 480.135 251.17 489.22 246.907 497.331L218.259 551.836C220.846 554.831 223.713 557.028 226.861 558.434C230.009 559.839 233.317 560.898 236.787 561.616L278.48 490.733L285.622 449.424L299.799 470.426L282.51 467.982Z" fill="#C3D6F9"/>
<mask id="mask11" mask-type="alpha" maskUnits="userSpaceOnUse" x="182" y="392" width="166" height="174">
<path fill-rule="evenodd" clip-rule="evenodd" d="M282.51 467.982L278.482 490.737L315.457 493.388C323.616 493.971 330.707 487.835 331.29 479.677C331.339 478.977 331.341 478.275 331.292 477.572C330.47 465.968 326.261 458.096 318.366 446.695C310.471 435.294 302.271 425.297 299.012 420.721C296.836 417.67 295.101 414.085 293.799 409.97C290.554 411.612 286.235 412.947 280.849 413.983C275.462 415.02 267.073 413.013 255.688 407.966C251.586 418.002 249.398 425.548 249.131 430.607C248.926 434.433 249.434 438.1 250.647 441.62C251.588 444.355 252.118 447.212 252.219 450.101L252.934 470.978C253.247 480.135 251.17 489.22 246.907 497.331L218.259 551.836C220.846 554.831 223.713 557.028 226.861 558.434C230.009 559.839 233.317 560.898 236.787 561.616L278.48 490.733L285.622 449.424L299.799 470.426L282.51 467.982Z" fill="white"/>
</mask>
<g mask="url(#mask11)">
<path fill-rule="evenodd" clip-rule="evenodd" d="M299.796 470.422L282.502 467.979L278.474 490.734L306.467 487.13C310.517 486.609 313.375 482.907 312.854 478.858C312.724 477.853 312.392 476.891 311.872 476.018L296.72 450.583C295.845 449.111 294.897 447.685 293.878 446.31L283.919 432.837L285.615 449.421L299.796 470.422Z" fill="#8BA4CF"/>
</g>
<mask id="mask12" mask-type="alpha" maskUnits="userSpaceOnUse" x="182" y="392" width="166" height="174">
<path fill-rule="evenodd" clip-rule="evenodd" d="M282.51 467.982L278.482 490.737L315.457 493.388C323.616 493.971 330.707 487.835 331.29 479.677C331.339 478.977 331.341 478.275 331.292 477.572C330.47 465.968 326.261 458.096 318.366 446.695C310.471 435.294 302.271 425.297 299.012 420.721C296.836 417.67 295.101 414.085 293.799 409.97C290.554 411.612 286.235 412.947 280.849 413.983C275.462 415.02 267.073 413.013 255.688 407.966C251.586 418.002 249.398 425.548 249.131 430.607C248.926 434.433 249.434 438.1 250.647 441.62C251.588 444.355 252.118 447.212 252.219 450.101L252.934 470.978C253.247 480.135 251.17 489.22 246.907 497.331L218.259 551.836C220.846 554.831 223.713 557.028 226.861 558.434C230.009 559.839 233.317 560.898 236.787 561.616L278.48 490.733L285.622 449.424L299.799 470.426L282.51 467.982Z" fill="white"/>
</mask>
<g mask="url(#mask12)">
<path d="M224.546 557.349L259.069 493.315C263.25 485.558 265.424 476.883 265.389 468.073L265.184 412.756M278.48 490.733L306.473 487.129C310.523 486.608 313.381 482.906 312.86 478.856C312.73 477.852 312.398 476.89 311.878 476.017L296.016 449.383C295.614 448.71 295.23 448.027 294.861 447.34L283.93 432.834L278.48 490.733ZM288.758 454.051L299.797 470.422L284.821 468.189L288.758 454.051Z" stroke="white" stroke-width="1.08"/>
</g>
<path fill-rule="evenodd" clip-rule="evenodd" d="M292.914 351.065L266.942 355.141C265.774 355.322 264.616 355.551 263.463 355.815L258.166 357.047C253.802 358.058 250.289 361.274 248.886 365.525L239.689 393.423L258.215 396.658L251.144 414.557C258.957 416.727 266.957 417.318 275.152 416.331C283.347 415.344 289.577 413.272 293.858 410.11L300.816 378.577L306.431 385.878L323.734 381.26L308.053 357.34C306.465 354.916 304.163 353.049 301.466 351.994C298.744 350.938 295.793 350.616 292.914 351.065Z" fill="white"/>
<mask id="mask13" mask-type="alpha" maskUnits="userSpaceOnUse" x="239" y="350" width="85" height="67">
<path fill-rule="evenodd" clip-rule="evenodd" d="M292.914 351.065L266.942 355.141C265.774 355.322 264.616 355.551 263.463 355.815L258.166 357.047C253.802 358.058 250.289 361.274 248.886 365.525L239.689 393.423L258.215 396.658L251.144 414.557C258.957 416.727 266.957 417.318 275.152 416.331C283.347 415.344 289.577 413.272 293.858 410.11L300.816 378.577L306.431 385.878L323.734 381.26L308.053 357.34C306.465 354.916 304.163 353.049 301.466 351.994C298.744 350.938 295.793 350.616 292.914 351.065Z" fill="white"/>
</mask>
<g mask="url(#mask13)">
<path fill-rule="evenodd" clip-rule="evenodd" d="M253.911 415.08C267.491 418.891 280.929 417.596 294.225 411.195L295.828 402.898C278.911 401.417 268.698 393.432 265.189 378.943L260.679 397.102L258.177 396.667L256.501 401.256L253.911 415.08Z" fill="#EFF4FF"/>
</g>
<mask id="mask14" mask-type="alpha" maskUnits="userSpaceOnUse" x="239" y="350" width="85" height="67">
<path fill-rule="evenodd" clip-rule="evenodd" d="M292.914 351.065L266.942 355.141C265.774 355.322 264.616 355.551 263.463 355.815L258.166 357.047C253.802 358.058 250.289 361.274 248.886 365.525L239.689 393.423L258.215 396.658L251.144 414.557C258.957 416.727 266.957 417.318 275.152 416.331C283.347 415.344 289.577 413.272 293.858 410.11L300.816 378.577L306.431 385.878L323.734 381.26L308.053 357.34C306.465 354.916 304.163 353.049 301.466 351.994C298.744 350.938 295.793 350.616 292.914 351.065Z" fill="white"/>
</mask>
<g mask="url(#mask14)">
<path d="M265.836 375.841L260.676 397.102L258.174 396.668" stroke="#31434D"/>
</g>
<mask id="mask15" mask-type="alpha" maskUnits="userSpaceOnUse" x="239" y="350" width="85" height="67">
<path fill-rule="evenodd" clip-rule="evenodd" d="M292.914 351.065L266.942 355.141C265.774 355.322 264.616 355.551 263.463 355.815L258.166 357.047C253.802 358.058 250.289 361.274 248.886 365.525L239.689 393.423L258.215 396.658L251.144 414.557C258.957 416.727 266.957 417.318 275.152 416.331C283.347 415.344 289.577 413.272 293.858 410.11L300.816 378.577L306.431 385.878L323.734 381.26L308.053 357.34C306.465 354.916 304.163 353.049 301.466 351.994C298.744 350.938 295.793 350.616 292.914 351.065Z" fill="white"/>
</mask>
<g mask="url(#mask15)">
<path d="M299.267 384.207L301.051 371.844" stroke="#31434D"/>
<path d="M292.914 351.065L266.942 355.141C265.774 355.322 264.616 355.551 263.463 355.815L258.166 357.047C253.802 358.058 250.289 361.274 248.886 365.525L239.689 393.423L258.215 396.658L251.144 414.557C258.957 416.727 266.957 417.318 275.152 416.331C283.347 415.344 289.577 413.272 293.858 410.11L300.816 378.577L306.431 385.878L323.734 381.26L308.053 357.34C306.465 354.916 304.163 353.049 301.466 351.994C298.744 350.938 295.793 350.616 292.914 351.065Z" stroke="#31434D" stroke-width="0.8"/>
</g>
<path fill-rule="evenodd" clip-rule="evenodd" d="M290.248 334.354C292.271 333.066 293.063 331.229 292.632 328.839C292.201 326.448 290.688 325.249 288.096 325.242C287.293 323.255 285.629 322.511 283.104 323.01C280.955 321.829 278.923 322.164 277.007 324.01C275.413 324.003 274.46 324.588 274.155 325.777C271.437 325.52 269.667 326.79 268.846 329.586C268.024 332.382 270.27 336.215 275.589 341.076L279.162 340.619L290.248 334.354Z" fill="#31434D"/>
<path fill-rule="evenodd" clip-rule="evenodd" d="M270.937 337.975C270.718 336.027 272.46 334.676 274.436 335.673C275.337 336.13 275.86 337.378 276.005 339.422C276.014 339.554 276.13 339.652 276.262 339.643C276.374 339.634 276.464 339.552 276.48 339.439L276.999 336.121C277.72 335.484 278.185 334.921 278.397 334.419C278.718 333.67 279.013 332.867 278.805 331.819C278.668 331.119 279.076 331.027 280.032 331.536C284.15 333.094 287.522 333.054 290.15 331.422C290.388 338.25 290.372 342.563 290.098 344.362C289.756 346.618 287.854 348.308 285.579 348.388L284.324 348.431L284.599 356.309C284.701 359.249 282.401 361.715 279.461 361.818C276.521 361.92 274.055 359.62 273.952 356.68L273.431 341.766C271.912 340.538 271.08 339.271 270.937 337.975Z" fill="white" stroke="#31434D"/>
<mask id="mask16" mask-type="alpha" maskUnits="userSpaceOnUse" x="270" y="330" width="22" height="33">
<path fill-rule="evenodd" clip-rule="evenodd" d="M270.937 337.975C270.718 336.027 272.46 334.676 274.436 335.673C275.337 336.13 275.86 337.378 276.005 339.422C276.014 339.554 276.13 339.652 276.262 339.643C276.374 339.634 276.464 339.552 276.48 339.439L276.999 336.121C277.72 335.484 278.185 334.921 278.397 334.419C278.718 333.67 279.013 332.867 278.805 331.819C278.668 331.119 279.076 331.027 280.032 331.536C284.15 333.094 287.522 333.054 290.15 331.422C290.388 338.25 290.372 342.563 290.098 344.362C289.756 346.618 287.854 348.308 285.579 348.388L284.324 348.431L284.599 356.309C284.701 359.249 282.401 361.715 279.461 361.818C276.521 361.92 274.055 359.62 273.952 356.68L273.431 341.766C271.912 340.538 271.08 339.271 270.937 337.975Z" fill="white"/>
</mask>
<g mask="url(#mask16)">
<path fill-rule="evenodd" clip-rule="evenodd" d="M284.317 348.436C282.341 348.398 280.593 347.637 279.075 346.16L284.569 354.241L284.317 348.436ZM286.659 343.523L283.23 343.335C283.383 344.21 283.898 344.676 284.785 344.733C285.672 344.79 286.293 344.392 286.659 343.523Z" fill="#31434D"/>
</g>
<mask id="mask17" mask-type="alpha" maskUnits="userSpaceOnUse" x="270" y="330" width="22" height="33">
<path fill-rule="evenodd" clip-rule="evenodd" d="M270.937 337.975C270.718 336.027 272.46 334.676 274.436 335.673C275.337 336.13 275.86 337.378 276.005 339.422C276.014 339.554 276.13 339.652 276.262 339.643C276.374 339.634 276.464 339.552 276.48 339.439L276.999 336.121C277.72 335.484 278.185 334.921 278.397 334.419C278.718 333.67 279.013 332.867 278.805 331.819C278.668 331.119 279.076 331.027 280.032 331.536C284.15 333.094 287.522 333.054 290.15 331.422C290.388 338.25 290.372 342.563 290.098 344.362C289.756 346.618 287.854 348.308 285.579 348.388L284.324 348.431L284.599 356.309C284.701 359.249 282.401 361.715 279.461 361.818C276.521 361.92 274.055 359.62 273.952 356.68L273.431 341.766C271.912 340.538 271.08 339.271 270.937 337.975Z" fill="white"/>
</mask>
<g mask="url(#mask17)">
<path d="M282.815 338.568C282.41 338.582 282.071 338.265 282.057 337.861C282.042 337.456 282.359 337.117 282.764 337.103C283.168 337.089 283.508 337.405 283.522 337.81C283.536 338.214 283.219 338.554 282.815 338.568Z" fill="#333333"/>
</g>
<mask id="mask18" mask-type="alpha" maskUnits="userSpaceOnUse" x="270" y="330" width="22" height="33">
<path fill-rule="evenodd" clip-rule="evenodd" d="M270.937 337.975C270.718 336.027 272.46 334.676 274.436 335.673C275.337 336.13 275.86 337.378 276.005 339.422C276.014 339.554 276.13 339.652 276.262 339.643C276.374 339.634 276.464 339.552 276.48 339.439L276.999 336.121C277.72 335.484 278.185 334.921 278.397 334.419C278.718 333.67 279.013 332.867 278.805 331.819C278.668 331.119 279.076 331.027 280.032 331.536C284.15 333.094 287.522 333.054 290.15 331.422C290.388 338.25 290.372 342.563 290.098 344.362C289.756 346.618 287.854 348.308 285.579 348.388L284.324 348.431L284.599 356.309C284.701 359.249 282.401 361.715 279.461 361.818C276.521 361.92 274.055 359.62 273.952 356.68L273.431 341.766C271.912 340.538 271.08 339.271 270.937 337.975Z" fill="white"/>
</mask>
<g mask="url(#mask18)">
<path d="M288.674 338.364C288.27 338.378 287.93 338.061 287.916 337.657C287.902 337.252 288.218 336.913 288.623 336.899C289.027 336.884 289.367 337.201 289.381 337.606C289.395 338.01 289.079 338.35 288.674 338.364Z" fill="#333333"/>
</g>
<mask id="mask19" mask-type="alpha" maskUnits="userSpaceOnUse" x="270" y="330" width="22" height="33">
<path fill-rule="evenodd" clip-rule="evenodd" d="M270.937 337.975C270.718 336.027 272.46 334.676 274.436 335.673C275.337 336.13 275.86 337.378 276.005 339.422C276.014 339.554 276.13 339.652 276.262 339.643C276.374 339.634 276.464 339.552 276.48 339.439L276.999 336.121C277.72 335.484 278.185 334.921 278.397 334.419C278.718 333.67 279.013 332.867 278.805 331.819C278.668 331.119 279.076 331.027 280.032 331.536C284.15 333.094 287.522 333.054 290.15 331.422C290.388 338.25 290.372 342.563 290.098 344.362C289.756 346.618 287.854 348.308 285.579 348.388L284.324 348.431L284.599 356.309C284.701 359.249 282.401 361.715 279.461 361.818C276.521 361.92 274.055 359.62 273.952 356.68L273.431 341.766C271.912 340.538 271.08 339.271 270.937 337.975Z" fill="white"/>
</mask>
<g mask="url(#mask19)">
<path d="M289.929 334.305C288.667 333.865 287.609 333.966 286.757 334.612M272.078 336.435C272.844 336.105 273.531 336.174 274.139 336.637C274.752 337.099 275.069 337.939 275.092 339.146L273.299 338.5L272.078 336.435ZM285.711 337.284C285.717 338.022 285.786 338.601 285.928 339.022C286.136 339.655 287.083 340.448 286.848 341.278C286.691 341.831 285.948 341.97 284.618 341.698L285.711 337.284Z" stroke="#31434D"/>
</g>
<mask id="mask20" mask-type="alpha" maskUnits="userSpaceOnUse" x="270" y="330" width="22" height="33">
<path fill-rule="evenodd" clip-rule="evenodd" d="M270.937 337.975C270.718 336.027 272.46 334.676 274.436 335.673C275.337 336.13 275.86 337.378 276.005 339.422C276.014 339.554 276.13 339.652 276.262 339.643C276.374 339.634 276.464 339.552 276.48 339.439L276.999 336.121C277.72 335.484 278.185 334.921 278.397 334.419C278.718 333.67 279.013 332.867 278.805 331.819C278.668 331.119 279.076 331.027 280.032 331.536C284.15 333.094 287.522 333.054 290.15 331.422C290.388 338.25 290.372 342.563 290.098 344.362C289.756 346.618 287.854 348.308 285.579 348.388L284.324 348.431L284.599 356.309C284.701 359.249 282.401 361.715 279.461 361.818C276.521 361.92 274.055 359.62 273.952 356.68L273.431 341.766C271.912 340.538 271.08 339.271 270.937 337.975Z" fill="white"/>
</mask>
<g mask="url(#mask20)">
<path d="M281.188 334.688C282.316 334.091 283.45 334.091 284.596 334.682" stroke="#31434D"/>
</g>
<path d="M288.682 339.829C287.333 339.876 286.202 338.821 286.155 337.473C286.108 336.124 287.163 334.993 288.511 334.946C289.86 334.899 290.991 335.954 291.038 337.302C291.085 338.651 290.03 339.782 288.682 339.829Z" stroke="#333333"/>
<path d="M282.912 340.03C281.564 340.078 280.432 339.022 280.385 337.674C280.338 336.325 281.393 335.194 282.742 335.147C284.09 335.1 285.222 336.155 285.269 337.503C285.316 338.852 284.261 339.983 282.912 340.03Z" stroke="#333333"/>
<path d="M286.191 337.227L285.215 337.261" stroke="#333333"/>
<path d="M280.378 337.43L275.544 336.499" stroke="#333333" stroke-linecap="round"/>
<path fill-rule="evenodd" clip-rule="evenodd" d="M295.201 385.264C298.519 376.622 307.436 371.488 316.578 372.966L325.932 374.477C332.029 375.463 336.194 381.188 335.246 387.297L326.543 443.404L340.921 445.681C345.453 446.399 348.544 450.654 347.826 455.186L343.842 480.341L354.581 482.042C353.364 489.726 346.151 494.966 338.468 493.749L323.704 491.41C318.906 490.65 315.632 486.144 316.392 481.347L317.998 471.206L303.813 468.96C298.486 468.111 294.845 463.106 295.684 457.777L306.329 390.445L295.201 385.264Z" fill="white" stroke="#31434D" stroke-width="0.8"/>
<mask id="mask21" mask-type="alpha" maskUnits="userSpaceOnUse" x="279" y="369" width="92" height="127">
<path fill-rule="evenodd" clip-rule="evenodd" d="M295.201 385.264C298.519 376.622 307.436 371.488 316.578 372.966L325.932 374.477C332.029 375.463 336.194 381.188 335.246 387.297L326.543 443.404L340.921 445.681C345.453 446.399 348.544 450.654 347.826 455.186L343.842 480.341L354.581 482.042C353.364 489.726 346.151 494.966 338.468 493.749L323.704 491.41C318.906 490.65 315.632 486.144 316.392 481.347L317.998 471.206L303.813 468.96C298.486 468.111 294.845 463.106 295.684 457.777L306.329 390.445L295.201 385.264Z" fill="white"/>
</mask>
<g mask="url(#mask21)">
<path fill-rule="evenodd" clip-rule="evenodd" d="M354.574 482.046L327.319 477.729L326.419 483.415C325.974 486.224 323.335 488.141 320.526 487.696C318.446 487.367 316.778 485.806 316.312 483.753L318.548 493.622L351.904 498.905L354.574 482.046ZM317.996 471.211L321.584 448.56C322.104 445.278 319.866 442.198 316.584 441.678C313.215 441.144 309.991 443.256 309.141 446.56L305.789 459.541C305.113 462.15 302.456 463.718 299.846 463.042C298.107 462.594 296.756 461.222 296.329 459.477L295.672 456.786L294.543 470.598L317.517 474.237L317.996 471.211ZM302.157 379.949C298.948 379.44 295.892 381.519 295.192 384.693L294.218 389.091L306.27 390.97L306.967 386.568C307.471 383.412 305.319 380.449 302.157 379.949Z" fill="#31434D"/>
</g>
<mask id="mask22" mask-type="alpha" maskUnits="userSpaceOnUse" x="279" y="369" width="92" height="127">
<path fill-rule="evenodd" clip-rule="evenodd" d="M295.201 385.264C298.519 376.622 307.436 371.488 316.578 372.966L325.932 374.477C332.029 375.463 336.194 381.188 335.246 387.297L326.543 443.404L340.921 445.681C345.453 446.399 348.544 450.654 347.826 455.186L343.842 480.341L354.581 482.042C353.364 489.726 346.151 494.966 338.468 493.749L323.704 491.41C318.906 490.65 315.632 486.144 316.392 481.347L317.998 471.206L303.813 468.96C298.486 468.111 294.845 463.106 295.684 457.777L306.329 390.445L295.201 385.264Z" fill="white"/>
</mask>
<g mask="url(#mask22)">
<path d="M327.363 443.573L315.582 441.707" stroke="#31434D" stroke-linecap="round"/>
</g>
<mask id="mask23" mask-type="alpha" maskUnits="userSpaceOnUse" x="279" y="369" width="92" height="127">
<path fill-rule="evenodd" clip-rule="evenodd" d="M295.201 385.264C298.519 376.622 307.436 371.488 316.578 372.966L325.932 374.477C332.029 375.463 336.194 381.188 335.246 387.297L326.543 443.404L340.921 445.681C345.453 446.399 348.544 450.654 347.826 455.186L343.842 480.341L354.581 482.042C353.364 489.726 346.151 494.966 338.468 493.749L323.704 491.41C318.906 490.65 315.632 486.144 316.392 481.347L317.998 471.206L303.813 468.96C298.486 468.111 294.845 463.106 295.684 457.777L306.329 390.445L295.201 385.264Z" fill="white"/>
</mask>
<g mask="url(#mask23)">
<path fill-rule="evenodd" clip-rule="evenodd" d="M329.926 399.531L308.532 395.662L329.926 399.531Z" fill="black"/>
<path d="M329.926 399.531L308.532 395.662" stroke="#31434D" stroke-linecap="round"/>
<path fill-rule="evenodd" clip-rule="evenodd" d="M329.238 405.121L307.844 401.253L329.238 405.121Z" fill="black"/>
<path d="M329.238 405.121L307.844 401.253" stroke="#31434D" stroke-linecap="round"/>
<path fill-rule="evenodd" clip-rule="evenodd" d="M328.551 410.717L307.157 406.849L328.551 410.717Z" fill="black"/>
<path d="M328.551 410.717L307.157 406.849" stroke="#31434D" stroke-linecap="round"/>
<path fill-rule="evenodd" clip-rule="evenodd" d="M327.863 416.313L306.469 412.445L327.863 416.313Z" fill="black"/>
<path d="M327.863 416.313L306.469 412.445" stroke="#31434D" stroke-linecap="round"/>
<path fill-rule="evenodd" clip-rule="evenodd" d="M327.18 421.909L305.786 418.04L327.18 421.909Z" fill="black"/>
<path d="M327.18 421.909L305.786 418.04" stroke="#31434D" stroke-linecap="round"/>
<path fill-rule="evenodd" clip-rule="evenodd" d="M326.492 427.504L305.098 423.636L326.492 427.504Z" fill="black"/>
<path d="M326.492 427.504L305.098 423.636" stroke="#31434D" stroke-linecap="round"/>
<path fill-rule="evenodd" clip-rule="evenodd" d="M325.801 433.1L304.407 429.232L325.801 433.1Z" fill="black"/>
<path d="M325.801 433.1L304.407 429.232" stroke="#31434D" stroke-linecap="round"/>
</g>
<mask id="mask24" mask-type="alpha" maskUnits="userSpaceOnUse" x="279" y="369" width="92" height="127">
<path fill-rule="evenodd" clip-rule="evenodd" d="M295.201 385.264C298.519 376.622 307.436 371.488 316.578 372.966L325.932 374.477C332.029 375.463 336.194 381.188 335.246 387.297L326.543 443.404L340.921 445.681C345.453 446.399 348.544 450.654 347.826 455.186L343.842 480.341L354.581 482.042C353.364 489.726 346.151 494.966 338.468 493.749L323.704 491.41C318.906 490.65 315.632 486.144 316.392 481.347L317.998 471.206L303.813 468.96C298.486 468.111 294.845 463.106 295.684 457.777L306.329 390.445L295.201 385.264Z" fill="white"/>
</mask>
<g mask="url(#mask24)">
<path fill-rule="evenodd" clip-rule="evenodd" d="M343.562 457.717L324.418 454.2L343.562 457.717Z" fill="black"/>
<path d="M343.562 457.717L324.418 454.2" stroke="#31434D" stroke-linecap="round"/>
<path fill-rule="evenodd" clip-rule="evenodd" d="M342.878 463.314L323.734 459.797L342.878 463.314Z" fill="black"/>
<path d="M342.878 463.314L323.734 459.797" stroke="#31434D" stroke-linecap="round"/>
<path fill-rule="evenodd" clip-rule="evenodd" d="M342.187 468.91L323.043 465.393L342.187 468.91Z" fill="black"/>
<path d="M342.187 468.91L323.043 465.393" stroke="#31434D" stroke-linecap="round"/>
<path fill-rule="evenodd" clip-rule="evenodd" d="M341.499 474.504L322.355 470.987L341.499 474.504Z" fill="black"/>
<path d="M341.499 474.504L322.355 470.987" stroke="#31434D" stroke-linecap="round"/>
</g>
<path fill-rule="evenodd" clip-rule="evenodd" d="M240.398 393.533L238.082 408.931C237.633 411.912 238.781 414.907 241.102 416.823C243.438 418.753 246.585 419.378 249.483 418.489L257.018 416.168C257.663 415.968 258.298 415.757 258.933 415.533L292.871 403.526C295.168 404.01 297.552 403.287 299.194 401.611L300.812 399.959V400.633C300.812 400.883 300.934 401.122 301.139 401.269C301.339 401.415 301.603 401.444 301.833 401.347L304.633 400.194C305.171 399.974 305.591 399.544 305.801 399.001C306.006 398.473 305.933 397.877 305.605 397.418L305.469 397.222C306.197 397.222 306.842 396.753 307.071 396.064L308.498 391.71C308.635 391.3 308.64 390.855 308.518 390.44C308.396 390.024 308.151 389.658 307.814 389.389L304.35 386.619C303.758 386.149 303.011 385.929 302.258 386.008C301.51 386.091 300.831 386.472 300.372 387.073L297.538 390.801C295.265 393.792 291.908 395.776 288.194 396.333L256.656 401.039L258.21 396.665L240.398 393.533Z" fill="white" stroke="#31434D"/>
<path d="M300.811 399.959L303.68 397.379" stroke="#333333"/>
<path d="M307.344 395.048L304.285 392.023" stroke="#31434D"/>
<path d="M308.129 392.6L304.733 389.38" stroke="#31434D"/>
<path fill-rule="evenodd" clip-rule="evenodd" d="M335.695 385.942L332.465 389.788C331.708 390.692 331.419 391.899 331.688 393.048L331.322 393.292C330.33 393.956 329.885 395.183 330.217 396.326C329.729 396.61 329.489 397.182 329.636 397.729L329.865 398.579C329.587 398.711 329.426 399.014 329.479 399.317L329.523 399.561C329.601 399.991 329.992 400.289 330.427 400.246L330.828 400.206C331.585 400.133 332.294 399.796 332.827 399.258L333.213 398.872C333.975 398.105 334.332 397.025 334.175 395.955L334.151 395.799L334.351 395.549C334.933 394.826 335.172 393.883 335.001 392.969L336.233 391.112C336.589 390.575 336.697 389.905 336.521 389.28C337.083 388.278 336.878 387.017 336.027 386.245L335.695 385.942Z" fill="white" stroke="#31434D"/>
<path d="M331.806 392.969L335.695 389.954" stroke="#31434D"/>
<path d="M330.345 396.258L334.445 393.6" stroke="#31434D"/>
<path d="M329.86 398.579L333.207 396.85" stroke="#31434D"/>
<defs>
<clipPath id="clip0">
<rect x="341.688" y="364.02" width="5.37464" height="5.37464" rx="2.68732" fill="white"/>
</clipPath>
<clipPath id="clip1">
<rect x="363.723" y="364.02" width="5.37464" height="5.37464" rx="2.68732" fill="white"/>
</clipPath>
</defs>
</svg>
