<svg width="282" height="154" viewBox="0 0 282 154" fill="none" xmlns="http://www.w3.org/2000/svg">
<rect x="64" y="29" width="119" height="28" fill="white"/>
<rect x="64" y="58" width="118" height="29" fill="white"/>
<rect x="64" y="88" width="119" height="27" fill="white"/>
<path d="M177.473 143.873H177.861L177.957 143.498C178.675 140.717 180.847 138.545 183.628 137.827C187.851 136.737 192.157 139.276 193.247 143.498L193.731 143.373L193.247 143.498C194.337 147.72 191.799 152.026 187.576 153.117C183.354 154.207 179.048 151.668 177.958 147.446L177.861 147.071H177.474H139.098H138.709L138.613 147.447C137.903 150.236 135.726 152.413 132.938 153.123C128.733 154.193 124.457 151.652 123.387 147.447L123.291 147.071H122.903H84.5266H84.1393L84.0424 147.446C83.3244 150.227 81.1527 152.399 78.3715 153.117L78.4965 153.601L78.3715 153.117C74.1493 154.207 69.8428 151.668 68.7527 147.446C67.6626 143.223 70.2016 138.917 74.4237 137.827C78.6458 136.737 82.9524 139.276 84.0424 143.498L84.1393 143.873H84.5266H122.903H123.289L123.386 143.499C124.109 140.737 126.265 138.58 129.028 137.858L129.401 137.76V137.374V124.483V123.983H128.901H78.5285C73.0114 123.976 68.5402 119.505 68.5335 113.988V101.396C68.5425 98.2384 70.0486 95.2726 72.5925 93.4024L73.1405 92.9995L72.5925 92.5967C70.0486 90.7264 68.5425 87.7607 68.5335 84.6033V72.0114C68.5425 68.854 70.0486 65.8882 72.5925 64.018L73.1405 63.6151L72.5925 63.2123C70.0486 61.342 68.5425 58.3763 68.5335 55.2189V42.6266C68.5402 37.1095 73.0112 32.6385 78.5282 32.6318H183.472C188.989 32.6385 193.46 37.1097 193.467 42.6269V55.2182C193.458 58.3758 191.952 61.3419 189.408 63.2123L188.86 63.6151L189.408 64.018C191.952 65.8883 193.458 68.8544 193.467 72.012V84.6026C193.458 87.7602 191.952 90.7263 189.408 92.5967L188.86 92.9995L189.408 93.4024C191.952 95.2727 193.458 98.2388 193.467 101.396V113.988C193.46 119.505 188.989 123.976 183.472 123.983H133.099H132.599V124.483V137.374V137.76L132.972 137.858C135.735 138.58 137.892 140.737 138.614 143.499L138.711 143.873H139.098H177.473ZM71.7313 145.472C71.7313 148.066 73.8344 150.169 76.4291 150.169C79.0234 150.169 81.1268 148.066 81.1268 145.472C81.1268 142.877 79.0237 140.774 76.4291 140.774C73.8344 140.774 71.7313 142.877 71.7313 145.472ZM71.7313 42.6263V55.2196C71.7313 58.9733 74.7742 62.0162 78.5279 62.0162H183.472C187.226 62.0162 190.269 58.9733 190.269 55.2196V42.6263C190.269 38.8725 187.226 35.8296 183.472 35.8296H78.5279C74.7742 35.8296 71.7313 38.8725 71.7313 42.6263ZM71.7313 72.0107V84.604C71.7313 88.3577 74.7742 91.4006 78.5279 91.4006H183.472C187.226 91.4006 190.269 88.3577 190.269 84.604V72.0107C190.269 68.2569 187.226 65.214 183.472 65.214H78.5279C74.7742 65.214 71.7313 68.2569 71.7313 72.0107ZM71.7313 113.988C71.7313 117.742 74.7742 120.785 78.5279 120.785H183.472C187.226 120.785 190.269 117.742 190.269 113.988V101.395C190.269 97.6413 187.226 94.5984 183.472 94.5984H78.5279C74.7742 94.5984 71.7313 97.6413 71.7313 101.395V113.988ZM126.302 145.472C126.302 148.066 128.405 150.169 131 150.169C133.594 150.169 135.698 148.066 135.698 145.472C135.698 142.877 133.595 140.774 131 140.774C128.405 140.774 126.302 142.877 126.302 145.472ZM180.873 145.472C180.873 148.066 182.976 150.169 185.571 150.169C188.165 150.169 190.269 148.066 190.269 145.472C190.269 142.877 188.166 140.774 185.571 140.774C182.976 140.774 180.873 142.877 180.873 145.472Z" fill="white" stroke="white"/>
<path d="M91.1194 51.5215H91.6194V51.0215V46.8237V46.3237H91.1194H84.8228H84.3228V46.8237V51.0215V51.5215H84.8228H91.1194ZM82.7239 43.126H93.2183C94.1013 43.126 94.8172 43.8419 94.8172 44.7249V53.1204C94.8172 54.0034 94.1013 54.7193 93.2183 54.7193H82.7239C81.8409 54.7193 81.125 54.0034 81.125 53.1204V44.7249C81.125 43.8419 81.8409 43.126 82.7239 43.126Z" fill="white" stroke="white"/>
<path d="M91.1194 80.9063H91.6194V80.4063V76.2085V75.7085H91.1194H84.8228H84.3228V76.2085V80.4063V80.9063H84.8228H91.1194ZM82.7239 72.5107H93.2183C94.1013 72.5107 94.8172 73.2267 94.8172 74.1096V82.5052C94.8172 83.3881 94.1013 84.1041 93.2183 84.1041H82.7239C81.8409 84.1041 81.125 83.3881 81.125 82.5052V74.1096C81.125 73.2267 81.8409 72.5107 82.7239 72.5107Z" fill="white" stroke="white"/>
<path d="M91.1194 110.29H91.6194V109.79V105.592V105.092H91.1194H84.8228H84.3228V105.592V109.79V110.29H84.8228H91.1194ZM82.7239 101.895H93.2183C94.1013 101.895 94.8172 102.61 94.8172 103.493V111.889C94.8172 112.772 94.1013 113.488 93.2183 113.488H82.7239C81.8409 113.488 81.125 112.772 81.125 111.889V103.493C81.125 102.61 81.8409 101.895 82.7239 101.895Z" fill="white" stroke="white"/>
<path d="M158.286 41.0273H179.275C180.158 41.0273 180.874 41.7433 180.874 42.6262C180.874 43.5092 180.158 44.2251 179.275 44.2251H158.286C157.403 44.2251 156.688 43.5092 156.688 42.6262C156.688 41.7433 157.403 41.0273 158.286 41.0273Z" fill="white" stroke="white"/>
<path d="M158.286 49.4229H179.275C180.158 49.4229 180.874 50.1388 180.874 51.0217C180.874 51.9047 180.158 52.6206 179.275 52.6206H158.286C157.403 52.6206 156.688 51.9047 156.688 51.0217C156.688 50.1388 157.403 49.4229 158.286 49.4229Z" fill="white" stroke="white"/>
<path d="M158.286 70.4111H179.275C180.158 70.4111 180.874 71.1271 180.874 72.01C180.874 72.893 180.158 73.6089 179.275 73.6089H158.286C157.403 73.6089 156.688 72.893 156.688 72.01C156.688 71.1271 157.403 70.4111 158.286 70.4111Z" fill="white" stroke="white"/>
<path d="M158.286 78.8076H179.275C180.158 78.8076 180.874 79.5235 180.874 80.4065C180.874 81.2895 180.158 82.0054 179.275 82.0054H158.286C157.403 82.0054 156.688 81.2895 156.688 80.4065C156.688 79.5235 157.403 78.8076 158.286 78.8076Z" fill="white" stroke="white"/>
<path d="M158.286 99.7959H179.275C180.158 99.7959 180.874 100.512 180.874 101.395C180.874 102.278 180.158 102.994 179.275 102.994H158.286C157.403 102.994 156.688 102.278 156.688 101.395C156.688 100.512 157.403 99.7959 158.286 99.7959Z" fill="white" stroke="white"/>
<path d="M158.286 108.191H179.275C180.158 108.191 180.874 108.907 180.874 109.79C180.874 110.673 180.158 111.389 179.275 111.389H158.286C157.403 111.389 156.688 110.673 156.688 109.79C156.688 108.907 157.403 108.191 158.286 108.191Z" fill="white" stroke="white"/>
<path d="M169.473 137.873H169.861L169.957 137.498C170.675 134.717 172.847 132.545 175.628 131.827C179.851 130.737 184.157 133.276 185.247 137.498L185.731 137.373L185.247 137.498C186.337 141.72 183.799 146.026 179.576 147.117C175.354 148.207 171.048 145.668 169.958 141.446L169.861 141.071H169.474H131.098H130.709L130.613 141.447C129.903 144.236 127.726 146.413 124.938 147.123C120.733 148.193 116.457 145.652 115.387 141.447L115.291 141.071H114.903H76.5266H76.1393L76.0424 141.446C75.3244 144.227 73.1527 146.399 70.3715 147.117L70.4965 147.601L70.3715 147.117C66.1493 148.207 61.8428 145.668 60.7527 141.446C59.6626 137.223 62.2016 132.917 66.4237 131.827C70.6458 130.737 74.9524 133.276 76.0424 137.498L76.1393 137.873H76.5266H114.903H115.289L115.386 137.499C116.109 134.737 118.265 132.58 121.028 131.858L121.401 131.76V131.374V118.483V117.983H120.901H70.5285C65.0114 117.976 60.5402 113.505 60.5335 107.988V95.3958C60.5425 92.2384 62.0486 89.2726 64.5925 87.4024L65.1405 86.9995L64.5925 86.5967C62.0486 84.7264 60.5425 81.7607 60.5335 78.6033V66.0114C60.5425 62.854 62.0486 59.8882 64.5925 58.018L65.1405 57.6151L64.5925 57.2123C62.0486 55.342 60.5425 52.3763 60.5335 49.2189V36.6266C60.5402 31.1095 65.0112 26.6385 70.5282 26.6318H175.472C180.989 26.6385 185.46 31.1097 185.467 36.6269V49.2182C185.458 52.3758 183.952 55.3419 181.408 57.2123L180.86 57.6151L181.408 58.018C183.952 59.8883 185.458 62.8544 185.467 66.012V78.6026C185.458 81.7602 183.952 84.7263 181.408 86.5967L180.86 86.9995L181.408 87.4024C183.952 89.2727 185.458 92.2388 185.467 95.3964V107.988C185.46 113.505 180.989 117.976 175.472 117.983H125.099H124.599V118.483V131.374V131.76L124.972 131.858C127.735 132.58 129.892 134.737 130.614 137.499L130.711 137.873H131.098H169.473ZM63.7313 139.472C63.7313 142.066 65.8344 144.169 68.4291 144.169C71.0234 144.169 73.1268 142.066 73.1268 139.472C73.1268 136.877 71.0237 134.774 68.4291 134.774C65.8344 134.774 63.7313 136.877 63.7313 139.472ZM63.7313 36.6263V49.2196C63.7313 52.9733 66.7742 56.0162 70.5279 56.0162H175.472C179.226 56.0162 182.269 52.9733 182.269 49.2196V36.6263C182.269 32.8725 179.226 29.8296 175.472 29.8296H70.5279C66.7742 29.8296 63.7313 32.8725 63.7313 36.6263ZM63.7313 66.0107V78.604C63.7313 82.3577 66.7742 85.4006 70.5279 85.4006H175.472C179.226 85.4006 182.269 82.3577 182.269 78.604V66.0107C182.269 62.2569 179.226 59.214 175.472 59.214H70.5279C66.7742 59.214 63.7313 62.2569 63.7313 66.0107ZM63.7313 107.988C63.7313 111.742 66.7742 114.785 70.5279 114.785H175.472C179.226 114.785 182.269 111.742 182.269 107.988V95.3951C182.269 91.6413 179.226 88.5984 175.472 88.5984H70.5279C66.7742 88.5984 63.7313 91.6413 63.7313 95.3951V107.988ZM118.302 139.472C118.302 142.066 120.405 144.169 123 144.169C125.594 144.169 127.698 142.066 127.698 139.472C127.698 136.877 125.595 134.774 123 134.774C120.405 134.774 118.302 136.877 118.302 139.472ZM172.873 139.472C172.873 142.066 174.976 144.169 177.571 144.169C180.165 144.169 182.269 142.066 182.269 139.472C182.269 136.877 180.166 134.774 177.571 134.774C174.976 134.774 172.873 136.877 172.873 139.472Z" fill="#4F4F4F" stroke="#EBEEF0"/>
<path d="M74.7239 66.5107H85.2183C86.1013 66.5107 86.8172 67.2267 86.8172 68.1096V76.5052C86.8172 77.3881 86.1013 78.1041 85.2183 78.1041H74.7239C73.8409 78.1041 73.125 77.3881 73.125 76.5052V68.1096C73.125 67.2267 73.8409 66.5107 74.7239 66.5107Z" fill="#CADBFA" stroke="white"/>
<path d="M74.7239 95.8945H85.2183C86.1013 95.8945 86.8172 96.6104 86.8172 97.4934V105.889C86.8172 106.772 86.1013 107.488 85.2183 107.488H74.7239C73.8409 107.488 73.125 106.772 73.125 105.889V97.4934C73.125 96.6104 73.8409 95.8945 74.7239 95.8945Z" fill="#CADBFA" stroke="white"/>
<path d="M150.286 35.0273H171.275C172.158 35.0273 172.874 35.7433 172.874 36.6262C172.874 37.5092 172.158 38.2251 171.275 38.2251H150.286C149.403 38.2251 148.688 37.5092 148.688 36.6262C148.688 35.7433 149.403 35.0273 150.286 35.0273Z" fill="#4F4F4F" stroke="white"/>
<path d="M150.286 43.4229H171.275C172.158 43.4229 172.874 44.1388 172.874 45.0217C172.874 45.9047 172.158 46.6206 171.275 46.6206H150.286C149.403 46.6206 148.688 45.9047 148.688 45.0217C148.688 44.1388 149.403 43.4229 150.286 43.4229Z" fill="#4F4F4F" stroke="white"/>
<path d="M150.286 64.4111H171.275C172.158 64.4111 172.874 65.1271 172.874 66.01C172.874 66.893 172.158 67.6089 171.275 67.6089H150.286C149.403 67.6089 148.688 66.893 148.688 66.01C148.688 65.1271 149.403 64.4111 150.286 64.4111Z" fill="#4F4F4F" stroke="white"/>
<path d="M150.286 72.8076H171.275C172.158 72.8076 172.874 73.5235 172.874 74.4065C172.874 75.2895 172.158 76.0054 171.275 76.0054H150.286C149.403 76.0054 148.688 75.2895 148.688 74.4065C148.688 73.5235 149.403 72.8076 150.286 72.8076Z" fill="#4F4F4F" stroke="white"/>
<path d="M150.286 93.7959H171.275C172.158 93.7959 172.874 94.5118 172.874 95.3948C172.874 96.2778 172.158 96.9937 171.275 96.9937H150.286C149.403 96.9937 148.688 96.2778 148.688 95.3948C148.688 94.5118 149.403 93.7959 150.286 93.7959Z" fill="#4F4F4F" stroke="white"/>
<path d="M150.286 102.191H171.275C172.158 102.191 172.874 102.907 172.874 103.79C172.874 104.673 172.158 105.389 171.275 105.389H150.286C149.403 105.389 148.688 104.673 148.688 103.79C148.688 102.907 149.403 102.191 150.286 102.191Z" fill="#4F4F4F" stroke="white"/>
<path fill-rule="evenodd" clip-rule="evenodd" d="M11.6315 112.382C9.7563 112.751 8.51063 113.218 7.93217 113.82C7.3537 114.421 6.9363 115.685 6.6423 117.573C6.27208 115.698 5.80386 114.451 5.20149 113.872C4.59911 113.293 3.29785 112.839 1.44681 112.579C3.2106 112.176 4.41861 111.673 5.03323 111.033C5.64785 110.394 6.1029 109.167 6.43604 107.388C6.88007 109.262 7.38444 110.471 7.94917 111.014C8.5139 111.556 9.74135 112.013 11.6315 112.382ZM30.1225 114.017C29.166 114.184 28.544 114.454 28.2547 114.755C27.9655 115.056 27.7199 115.688 27.5917 116.65C27.4247 115.694 27.1913 115.108 26.8525 114.782C26.5136 114.456 25.9187 114.246 24.9563 114.117C25.839 113.953 26.4234 113.646 26.7488 113.307C27.0742 112.969 27.2836 112.374 27.4871 111.484C27.6903 112.403 27.9613 113.026 28.2625 113.315C28.5637 113.605 29.1962 113.851 30.1225 114.017ZM25.366 123.412C22.5344 123.947 20.6666 124.684 19.7989 125.587C18.9312 126.49 18.2682 128.386 17.846 131.236C17.3088 128.404 16.6072 126.572 15.666 125.667C14.7248 124.763 12.8663 124.134 10.0152 123.709C12.6616 123.141 14.454 122.331 15.394 121.353C16.334 120.375 17.0723 118.552 17.5352 115.885C18.1824 118.678 18.9578 120.509 19.8237 121.342C20.6896 122.174 22.5496 122.876 25.366 123.412Z" fill="white"/>
<path fill-rule="evenodd" clip-rule="evenodd" d="M243.376 65.5966C239.929 66.274 237.64 67.1325 236.577 68.2387C235.513 69.3449 234.746 71.6667 234.206 75.1376C233.525 71.6904 232.665 69.4001 231.558 68.3359C230.45 67.2718 228.059 66.436 224.657 65.9591C227.898 65.2178 230.119 64.2928 231.248 63.1174C232.378 61.9421 233.214 59.6868 233.827 56.4181C234.643 59.8627 235.57 62.0838 236.608 63.0815C237.646 64.0791 239.902 64.9175 243.376 65.5966ZM277.363 68.6022C275.605 68.9077 274.461 69.4048 273.93 69.9579C273.398 70.511 272.947 71.6732 272.711 73.4419C272.404 71.6837 271.975 70.6064 271.352 70.0078C270.73 69.4092 269.636 69.0233 267.867 68.7862C269.489 68.4833 270.564 67.9197 271.162 67.2975C271.76 66.6752 272.145 65.5822 272.519 63.9465C272.892 65.6355 273.39 66.7794 273.944 67.3114C274.497 67.8435 275.66 68.296 277.363 68.6022ZM268.62 85.87C263.416 86.8529 259.983 88.2085 258.388 89.8678C256.793 91.5271 255.574 95.0111 254.798 100.251C253.811 95.0453 252.521 91.6777 250.791 90.0149C249.061 88.3522 245.646 87.197 240.405 86.4165C245.269 85.3723 248.564 83.8837 250.292 82.0861C252.019 80.2885 253.376 76.9375 254.227 72.0358C255.417 77.1694 256.842 80.5343 258.433 82.0641C260.025 83.5938 263.444 84.8846 268.62 85.87Z" fill="white"/>
<path d="M65.9019 6.5C67.0566 4.5 69.9434 4.5 71.0981 6.5L91.4497 41.75C92.6044 43.75 91.161 46.25 88.8516 46.25H48.1484C45.839 46.25 44.3956 43.75 45.5503 41.75L65.9019 6.5Z" fill="white" stroke="#4F4F4F" stroke-width="2"/>
<path d="M67.0508 32.7451C66.8775 32.7451 66.7301 32.6844 66.6088 32.5631C66.4875 32.4417 66.4268 32.2944 66.4268 32.1211V20.2131C66.4268 20.0397 66.4875 19.8924 66.6088 19.7711C66.7301 19.6497 66.8775 19.5891 67.0508 19.5891H69.1568C69.3475 19.5891 69.4948 19.6497 69.5988 19.7711C69.7201 19.8751 69.7808 20.0224 69.7808 20.2131V32.1211C69.7808 32.2944 69.7201 32.4417 69.5988 32.5631C69.4948 32.6844 69.3475 32.7451 69.1568 32.7451H67.0508ZM66.8948 37.7891C66.7215 37.7891 66.5741 37.7284 66.4528 37.6071C66.3315 37.4857 66.2708 37.3384 66.2708 37.1651V34.7471C66.2708 34.5564 66.3315 34.4004 66.4528 34.2791C66.5741 34.1577 66.7215 34.0971 66.8948 34.0971H69.3128C69.5035 34.0971 69.6595 34.1577 69.7808 34.2791C69.9021 34.4004 69.9628 34.5564 69.9628 34.7471V37.1651C69.9628 37.3384 69.9021 37.4857 69.7808 37.6071C69.6595 37.7284 69.5035 37.7891 69.3128 37.7891H66.8948Z" fill="#10C5A3"/>
</svg>
