<svg width="1440" height="900" viewBox="0 0 1440 900" fill="none" xmlns="http://www.w3.org/2000/svg">
<path d="M129.439 823.087L-12.7301 909.698L-16.6531 743.271L129.439 823.087Z" stroke="white" stroke-width="3"/>
<line y1="-1.5" x2="499.514" y2="-1.5" transform="matrix(0.871053 0.491189 -0.494248 0.869321 -172.103 169.644)" stroke="white" stroke-width="3"/>
<line y1="-1.5" x2="499.514" y2="-1.5" transform="matrix(0.871053 0.491189 -0.494248 0.869321 -357 137)" stroke="white" stroke-width="3"/>
<line x1="1069.73" y1="710.169" x2="1472.73" y2="935.169" stroke="white" stroke-width="3"/>
<line x1="0.767007" y1="859.711" x2="458.392" y2="1132" stroke="white" stroke-width="3"/>
<line x1="1233.61" y1="11.2536" x2="1653.19" y2="263.865" stroke="white" stroke-width="3"/>
<line x1="1001.6" y1="-58.1916" x2="1331.45" y2="136.119" stroke="white" stroke-width="3"/>
<path d="M1203.42 481.976L1293.39 537.076L1200.69 587.448L1203.42 481.976Z" stroke="white" stroke-width="3"/>
<rect x="256.885" y="631.593" width="48.3449" height="48.3449" transform="rotate(-54.9816 256.885 631.593)" stroke="white" stroke-width="3"/>
<rect x="1137.91" y="212" width="37.2739" height="37.2739" transform="rotate(41.9372 1137.91 212)" stroke="white" stroke-width="3"/>
<path d="M266.196 180.171L225.456 154.071L268.429 131.839L266.196 180.171Z" stroke="white" stroke-width="3"/>
<path d="M1295.2 872.846L1163.14 801.751L1290.74 722.931L1295.2 872.846Z" stroke="white" stroke-width="3"/>
</svg>
