<svg width="33" height="29" viewBox="0 0 33 29" fill="none" xmlns="http://www.w3.org/2000/svg">
    <path d="M31.8927 20.9534C31.6347 20.3071 30.9016 19.9922 30.2553 20.2503C29.609 20.5083 29.2941 21.2413 29.5522 21.8876C29.8802 22.7094 29.7726 23.6477 29.2644 24.3978C28.7559 25.1482 27.9418 25.5786 27.0309 25.5786H5.2339C4.24022 25.5786 3.3578 25.0601 2.87334 24.1915C2.38812 23.3214 2.41093 22.2961 2.93433 21.4486L13.8328 3.80324C14.3291 2.99977 15.1887 2.5201 16.1324 2.5201C17.0761 2.5201 17.9356 2.99977 18.432 3.80324L26.4923 16.8535C26.858 17.4456 27.6345 17.6293 28.2264 17.2634C28.8184 16.8978 29.002 16.1213 28.6363 15.5293L20.5759 2.47895C19.6172 0.926709 17.9561 0 16.1323 0C14.3086 0 12.6475 0.926772 11.6887 2.47895L0.790259 20.1244C-0.220124 21.7604 -0.264103 23.7397 0.672499 25.419C1.60834 27.0969 3.31351 28.0986 5.2339 28.0986H27.0309C28.7912 28.0986 30.3656 27.2648 31.3506 25.8113C32.3282 24.3685 32.5308 22.5525 31.8927 20.9534Z" fill="#EB4B4F"/>
    <path d="M16.1329 23.1216C16.8288 23.1216 17.3929 22.5575 17.3929 21.8616C17.3929 21.1657 16.8288 20.6016 16.1329 20.6016H16.1323C15.4363 20.6016 14.8726 21.1657 14.8726 21.8616C14.8726 22.5575 15.437 23.1216 16.1329 23.1216Z" fill="#EB4B4F"/>
    <path d="M17.3924 17.4509V8.1897C17.3924 7.49379 16.8283 6.92969 16.1324 6.92969C15.4364 6.92969 14.8723 7.49379 14.8723 8.1897V17.4509C14.8723 18.1469 15.4364 18.711 16.1324 18.711C16.8283 18.711 17.3924 18.1469 17.3924 17.4509Z" fill="#EB4B4F"/>
</svg>
