<svg width="214" height="30" viewBox="0 0 214 30" fill="none"
  xmlns="http://www.w3.org/2000/svg">
  <path d="M69.5156 7.18848H71.3225L77.1183 15.9673L82.9141 7.18848H84.721V23.2945H82.9141V10.23L77.1183 18.8705H77.0501L71.2544 10.2645V23.2945H69.5156V7.18848ZM89.3576 7.18848H91.1645V23.2945H89.3576V7.18848ZM95.8011 7.18848H97.608V21.6009H106.54V23.2945H95.8011V7.18848ZM109.847 7.18848H111.654V21.6009H120.587V23.2945H109.847V7.18848ZM123.894 7.18848H135.383V8.84746H125.7V14.3429H134.36V16.0018H125.7V21.6355H135.519V23.2945H123.928V7.18848H123.894ZM139.099 7.18848H140.769L150.793 20.0802V7.18848H152.531V23.2945H151.099L140.838 10.0917V23.2945H139.099V7.18848ZM157.032 7.18848H158.702L168.725 20.0802V7.18848H170.464V23.2945H169.032L158.77 10.0917V23.2945H157.032V7.18848ZM175.135 7.18848H176.942V23.2945H175.135V7.18848ZM187.92 23.5364C186.931 23.5364 186.045 23.3982 185.226 23.0871C184.408 22.776 183.726 22.3267 183.147 21.7392C182.567 21.1516 182.124 20.4258 181.783 19.5272C181.476 18.6631 181.306 17.6608 181.306 16.5203V7.18848H183.113V16.4511C183.113 18.2138 183.556 19.5272 184.408 20.4604C185.26 21.3935 186.454 21.8774 187.988 21.8774C189.454 21.8774 190.613 21.4281 191.499 20.5295C192.352 19.6309 192.795 18.3175 192.795 16.5548V7.18848H194.602V16.4166C194.602 17.5917 194.431 18.6286 194.124 19.5272C193.818 20.4258 193.34 21.1516 192.761 21.7737C192.181 22.3613 191.465 22.8106 190.681 23.1217C189.829 23.3982 188.942 23.5364 187.92 23.5364ZM198.795 7.18848H200.602L206.398 15.9673L212.194 7.18848H214.001V23.2945H212.194V10.23L206.398 18.8705H206.296L200.5 10.2645V23.2945H198.761V7.18848H198.795Z" fill="#58595B"/>
  <path d="M17.9336 7.18848H29.7297V9.71152H20.7292V13.8935H28.7069V16.4166H20.7292V20.7369H29.8319V23.2945H17.9336V7.18848Z" fill="#58595B"/>
  <path d="M53.5946 9.78064H48.5488V7.18848H61.4359V9.78064H56.4242V23.2945H53.5946V9.78064Z" fill="#58595B"/>
  <path d="M0 7.18848H2.59105L11.1142 18.3175V7.18848H13.8416V23.2945H11.5233L2.76151 11.8198V23.2945H0V7.18848Z" fill="#58595B"/>
  <path fill-rule="evenodd" clip-rule="evenodd" d="M27.1719 0L37.8088 15L27.1719 30H30.3766L32.8995 26.4055L39.4112 17.2465L41.0135 15L39.4112 12.7535L32.8995 3.59447L30.3766 0H27.1719Z" fill="#EB4B4F"/>
  <path fill-rule="evenodd" clip-rule="evenodd" d="M43.3667 7.18848L40.0938 11.7852L41.6961 14.0664L46.5714 7.18848H43.3667Z" fill="#58595B"/>
  <path fill-rule="evenodd" clip-rule="evenodd" d="M46.9123 23.295L41.6961 15.9678L40.0938 18.2143L43.7076 23.295H46.9123Z" fill="#58595B"/>
</svg>
