<svg width="214" height="30" viewBox="0 0 214 30" fill="none"
  xmlns="http://www.w3.org/2000/svg">
  <path d="M69.5152 7.18896H71.3221L77.1178 15.9678L82.9136 7.18896H84.7205V23.295H82.9136V10.2304L77.1178 18.871H77.0497L71.2539 10.265V23.295H69.5152V7.18896ZM89.3571 7.18896H91.164V23.295H89.3571V7.18896ZM95.8006 7.18896H97.6076V21.6014H106.54V23.295H95.8006V7.18896ZM109.847 7.18896H111.654V21.6014H120.586V23.295H109.847V7.18896ZM123.893 7.18896H135.382V8.84795H125.7V14.3433H134.36V16.0023H125.7V21.636H135.519V23.295H123.927V7.18896H123.893ZM139.098 7.18896H140.769L150.792 20.0807V7.18896H152.531V23.295H151.099L140.837 10.0922V23.295H139.098V7.18896ZM157.031 7.18896H158.702L168.725 20.0807V7.18896H170.464V23.295H169.032L158.77 10.0922V23.295H157.031V7.18896ZM175.134 7.18896H176.941V23.295H175.134V7.18896ZM187.919 23.5369C186.93 23.5369 186.044 23.3986 185.226 23.0876C184.408 22.7765 183.726 22.3272 183.146 21.7397C182.567 21.1521 182.123 20.4263 181.782 19.5277C181.476 18.6636 181.305 17.6613 181.305 16.5208V7.18896H183.112V16.4516C183.112 18.2143 183.555 19.5277 184.408 20.4609C185.26 21.394 186.453 21.8779 187.987 21.8779C189.453 21.8779 190.612 21.4286 191.499 20.53C192.351 19.6314 192.794 18.318 192.794 16.5553V7.18896H194.601V16.4171C194.601 17.5922 194.431 18.6291 194.124 19.5277C193.817 20.4263 193.34 21.1521 192.76 21.7742C192.181 22.3618 191.465 22.8111 190.681 23.1221C189.828 23.3986 188.942 23.5369 187.919 23.5369ZM198.795 7.18896H200.602L206.397 15.9678L212.193 7.18896H214V23.295H212.193V10.2304L206.397 18.871H206.295L200.499 10.265V23.295H198.761V7.18896H198.795Z" fill="#0E1821"/>
  <path d="M17.9326 7.18896H29.7287V9.71201H20.7282V13.894H28.7059V16.4171H20.7282V20.7374H29.831V23.295H17.9326V7.18896Z" fill="#0E1821"/>
  <path d="M53.5939 9.78113H48.5481V7.18896H61.4352V9.78113H56.4235V23.295H53.5939V9.78113Z" fill="#0E1821"/>
  <path d="M0 7.18896H2.59105L11.1142 18.318V7.18896H13.8416V23.295H11.5233L2.76151 11.8203V23.295H0V7.18896Z" fill="#0E1821"/>
  <path fill-rule="evenodd" clip-rule="evenodd" d="M27.1719 0L37.8089 15L27.1719 30H30.3767L32.8995 26.4055L39.4112 17.2465L41.0136 15L39.4112 12.7535L32.8995 3.59447L30.3767 0H27.1719Z" fill="#EB4B4F"/>
  <path fill-rule="evenodd" clip-rule="evenodd" d="M43.3658 7.18896L40.0929 11.7857L41.6953 14.0668L46.5706 7.18896H43.3658Z" fill="#06D8C6"/>
  <path fill-rule="evenodd" clip-rule="evenodd" d="M46.9115 23.2949L41.6953 15.9677L40.0929 18.2143L43.7068 23.2949H46.9115Z" fill="#06D8C6"/>
</svg>
