<svg width="152" height="21" viewBox="0 0 152 21" fill="none"
  xmlns="http://www.w3.org/2000/svg">
  <path d="M48.4008 5.03223H49.6588L53.6942 11.1774L57.7296 5.03223H58.9877V16.3064H57.7296V7.16126L53.6942 13.2096H53.6467L49.6114 7.18545V16.3064H48.4008V5.03223ZM62.216 5.03223H63.474V16.3064H62.216V5.03223ZM66.7023 5.03223H67.9604V15.1209H74.1796V16.3064H66.7023V5.03223ZM76.4822 5.03223H77.7402V15.1209H83.9595V16.3064H76.4822V5.03223ZM86.262 5.03223H94.2615V6.19352H87.5201V10.0403H93.5494V11.2016H87.5201V15.1451H94.3565V16.3064H86.2857V5.03223H86.262ZM96.8489 5.03223H98.012L104.991 14.0564V5.03223H106.201V16.3064H105.204L98.0595 7.06448V16.3064H96.8489V5.03223ZM109.335 5.03223H110.498L117.477 14.0564V5.03223H118.687V16.3064H117.69L110.545 7.06448V16.3064H109.335V5.03223ZM121.939 5.03223H123.197V16.3064H121.939V5.03223ZM130.841 16.4758C130.153 16.4758 129.535 16.379 128.966 16.1613C128.396 15.9435 127.921 15.629 127.518 15.2177C127.114 14.8064 126.806 14.2984 126.568 13.6693C126.355 13.0645 126.236 12.3629 126.236 11.5645V5.03223H127.494V11.5161C127.494 12.75 127.803 13.6693 128.396 14.3225C128.989 14.9758 129.82 15.3145 130.888 15.3145C131.909 15.3145 132.716 15 133.333 14.3709C133.927 13.7419 134.235 12.8225 134.235 11.5887V5.03223H135.493V11.4919C135.493 12.3145 135.375 13.0403 135.161 13.6693C134.948 14.2984 134.615 14.8064 134.212 15.2419C133.808 15.6532 133.31 15.9677 132.764 16.1854C132.17 16.379 131.553 16.4758 130.841 16.4758ZM138.413 5.03223H139.671L143.707 11.1774L147.742 5.03223H149V16.3064H147.742V7.16126L143.707 13.2096H143.635L139.6 7.18545V16.3064H138.389V5.03223H138.413Z" fill="white"/>
  <path d="M12.4858 5.03223H20.699V6.79836H14.4323V9.72578H19.9869V11.4919H14.4323V14.5161H20.7702V16.3064H12.4858V5.03223Z" fill="white"/>
  <path d="M37.3154 6.84674H33.8022V5.03223H42.775V6.84674H39.2856V16.3064H37.3154V6.84674Z" fill="white"/>
  <path d="M0 5.03223H1.80405L7.73841 12.8226V5.03223H9.63741V16.3064H8.02326L1.92273 8.27416V16.3064H0V5.03223Z" fill="white"/>
  <path fill-rule="evenodd" clip-rule="evenodd" d="M18.9188 0L26.3249 10.5L18.9188 21H21.1501L22.9067 18.4839L27.4406 12.0726L28.5562 10.5L27.4406 8.92742L22.9067 2.51613L21.1501 0H18.9188Z" fill="#EB4B4F"/>
  <path fill-rule="evenodd" clip-rule="evenodd" d="M30.194 5.03223L27.9152 8.24997L29.0308 9.84674L32.4253 5.03223H30.194Z" fill="#F7F8FC"/>
  <path fill-rule="evenodd" clip-rule="evenodd" d="M32.6627 16.3064L29.0308 11.1774L27.9152 12.7499L30.4313 16.3064H32.6627Z" fill="#F7F8FC"/>
</svg>
