<svg width="13" height="13" viewBox="0 0 13 13" fill="none" xmlns="http://www.w3.org/2000/svg">
<path d="M11.3242 1.01562H10.1562V0.40625C10.1562 0.181898 9.97438 0 9.75 0C9.52562 0 9.34375 0.181898 9.34375 0.40625V1.01562H3.65625V0.40625C3.65625 0.181898 3.47438 0 3.25 0C3.02562 0 2.84375 0.181898 2.84375 0.40625V1.01562H1.67578C0.75174 1.01562 0 1.76737 0 2.69141V11.3242C0 12.2483 0.75174 13 1.67578 13H11.3242C12.2483 13 13 12.2483 13 11.3242V2.69141C13 1.76737 12.2483 1.01562 11.3242 1.01562ZM12.1875 11.3242C12.1875 11.801 11.801 12.1875 11.3242 12.1875H1.67578C1.199 12.1875 0.8125 11.801 0.8125 11.3242V4.5957C0.8125 4.5256 0.86935 4.46875 0.939453 4.46875H12.0605C12.1307 4.46875 12.1875 4.5256 12.1875 4.5957V11.3242Z" fill="black"/>
</svg>
