<svg width="10" height="10" viewBox="0 0 10 10" fill="none" xmlns="http://www.w3.org/2000/svg">
<g clip-path="url(#clip0)">
<path d="M5.91616 4.99099L9.80996 8.88491C10.0634 9.1382 10.0634 9.54772 9.80996 9.801C9.55667 10.0543 9.14715 10.0543 8.89387 9.801L4.99995 5.90708L1.10614 9.801C0.852741 10.0543 0.443335 10.0543 0.190052 9.801C-0.0633505 9.54772 -0.0633505 9.1382 0.190052 8.88491L4.08385 4.99099L0.190052 1.09707C-0.0633505 0.843788 -0.0633505 0.434263 0.190052 0.18098C0.316278 0.054635 0.482247 -0.00883389 0.648097 -0.00883389C0.813947 -0.00883389 0.979798 0.054635 1.10614 0.18098L4.99995 4.0749L8.89387 0.18098C9.02021 0.054635 9.18606 -0.00883389 9.35191 -0.00883389C9.51776 -0.00883389 9.68361 0.054635 9.80996 0.18098C10.0634 0.434263 10.0634 0.843788 9.80996 1.09707L5.91616 4.99099Z" fill="#0E1821"/>
</g>
<defs>
<clipPath id="clip0">
<rect width="10" height="10" fill="white" transform="matrix(1 0 0 -1 0 10)"/>
</clipPath>
</defs>
</svg>
