<svg width="29" height="28" viewBox="0 0 29 28" fill="none" xmlns="http://www.w3.org/2000/svg">
<path d="M5.56753 0.147003V5.86557H0.992676V16.159H5.56753V27.5961H21.5795L28.4418 20.7338V0.147003H5.56753ZM2.13639 15.0153V7.00928H19.2921V15.0153H2.13639ZM21.5795 25.9789V20.7338H26.8246L21.5795 25.9789ZM27.2981 19.5901H20.4358V26.4524H6.71124V16.159H20.4358V5.86557H6.71124V1.29072H27.2981V19.5901Z" fill="#10BF8B"/>
<path d="M6.61601 11.6001C6.61601 11.8655 6.6 12.0794 6.56797 12.2418C6.53709 12.4042 6.49363 12.53 6.43759 12.6192C6.38269 12.7084 6.3175 12.7679 6.24202 12.7976C6.16653 12.8273 6.08533 12.8422 5.9984 12.8422C5.89318 12.8422 5.80054 12.8193 5.72048 12.7759C5.64042 12.7336 5.57409 12.6489 5.52148 12.522C5.46887 12.395 5.42884 12.2189 5.40482 11.9901C5.37966 11.7614 5.36707 11.4617 5.36707 11.0912C5.36707 10.7435 5.37508 10.4496 5.39452 10.2094C5.41282 9.96806 5.44485 9.77363 5.4906 9.62494C5.53634 9.47626 5.59925 9.36989 5.67931 9.30356C5.75937 9.23608 5.86116 9.20291 5.98468 9.20291C6.20885 9.20291 6.36325 9.28412 6.44788 9.44767C6.53137 9.60893 6.57369 9.86855 6.57369 10.2288H7.56072C7.56072 10.0504 7.54814 9.8594 7.52297 9.65582C7.49896 9.45224 7.43376 9.26239 7.33426 9.08625C7.23476 8.91012 7.08264 8.76487 6.87906 8.6505C6.67548 8.53613 6.3987 8.47894 6.0453 8.47894C5.67588 8.47894 5.37966 8.54299 5.16121 8.66766C4.94161 8.79346 4.77463 8.9696 4.65683 9.19262C4.54131 9.41679 4.46468 9.6867 4.43037 9.99894C4.39721 10.3123 4.37891 10.6543 4.37891 11.0248C4.37891 11.3988 4.39721 11.7431 4.43037 12.053C4.46468 12.3641 4.54017 12.6318 4.65683 12.8559C4.77349 13.0801 4.94161 13.2517 5.16121 13.3706C5.37966 13.4884 5.67588 13.549 6.0453 13.549C6.37011 13.549 6.63431 13.4976 6.83789 13.3969C7.04147 13.2963 7.19816 13.1567 7.31139 12.9795C7.42233 12.801 7.5001 12.5929 7.54127 12.355C7.58245 12.1171 7.60303 11.8643 7.60303 11.6001H6.61601Z" fill="#10BF8B"/>
<path d="M11.8361 11.6539C11.8086 11.5292 11.7595 11.4171 11.6885 11.3142C11.6188 11.2113 11.5227 11.1152 11.4038 11.026C11.286 10.9356 11.1327 10.8498 10.9451 10.7675L10.1834 10.4381C9.97298 10.3523 9.83573 10.2574 9.77168 10.1533C9.70763 10.0504 9.67561 9.92458 9.67561 9.77246C9.67561 9.69927 9.68247 9.62836 9.69963 9.55973C9.71564 9.49111 9.74538 9.42821 9.78884 9.3756C9.8323 9.32299 9.89177 9.28067 9.96383 9.24864C10.037 9.21776 10.1285 9.20061 10.2383 9.20061C10.4305 9.20061 10.5677 9.26466 10.6501 9.38932C10.7313 9.51627 10.7724 9.69584 10.7724 9.92915H11.7194V9.79191C11.7194 9.55859 11.6805 9.35844 11.6062 9.19146C11.5307 9.02562 11.4255 8.88837 11.2905 8.78087C11.1556 8.67221 10.9955 8.59558 10.8102 8.54755C10.6249 8.49951 10.4225 8.47549 10.2029 8.47549C9.73165 8.47549 9.35995 8.59444 9.09117 8.83233C8.82126 9.07022 8.6863 9.43049 8.6863 9.91543C8.6863 10.1179 8.71146 10.294 8.76178 10.4484C8.81211 10.6017 8.89102 10.7366 8.99853 10.8533C9.10604 10.9711 9.23986 11.0729 9.39998 11.1586C9.56124 11.2456 9.7511 11.3268 9.96955 11.4C10.1342 11.4549 10.2738 11.5086 10.3847 11.5612C10.4957 11.6138 10.586 11.671 10.6558 11.7362C10.7244 11.7991 10.7736 11.8712 10.8033 11.9512C10.8319 12.0313 10.8479 12.1262 10.8479 12.236C10.8479 12.4407 10.7862 12.594 10.6661 12.6924C10.5448 12.7907 10.4099 12.8399 10.2578 12.8399C10.1308 12.8399 10.0233 12.8205 9.93981 12.785C9.85517 12.7484 9.78655 12.6981 9.73623 12.6329C9.6859 12.5688 9.65274 12.4899 9.63329 12.3961C9.61614 12.3035 9.60584 12.1994 9.60584 12.0851V11.9421H8.61768V12.1411C8.61768 12.594 8.73662 12.9417 8.9768 13.1842C9.21813 13.4266 9.61728 13.5479 10.1754 13.5479C10.7107 13.5479 11.1281 13.4289 11.4278 13.1933C11.7274 12.9577 11.8773 12.5814 11.8773 12.0645C11.8773 11.9146 11.8635 11.7762 11.8361 11.6539Z" fill="#10BF8B"/>
<path d="M15.2768 8.57161L14.5494 12.1949H14.5277L13.838 8.57161H12.7812L13.9055 13.4713H15.175L16.3005 8.57161H15.2768Z" fill="#10BF8B"/>
</svg>
