<svg width="13" height="17" viewBox="0 0 13 17" fill="none" xmlns="http://www.w3.org/2000/svg">
<path d="M12.7509 11.8376L11.9766 11.3214V6.83984C11.9766 3.98687 9.78439 1.63668 6.99609 1.38421V0.498047C6.99609 0.222992 6.7731 0 6.49805 0C6.22299 0 6 0.222992 6 0.498047V1.38421C3.2117 1.63668 1.01953 3.98687 1.01953 6.83984V11.3214L0.245234 11.8376C0.106645 11.9299 0.0234375 12.0854 0.0234375 12.252V14.2441C0.0234375 14.5192 0.24643 14.7422 0.521484 14.7422H3.80444C4.03823 16.0247 5.15667 17 6.49805 17C7.83939 17 8.95787 16.0247 9.19165 14.7422H12.4746C12.7497 14.7422 12.9727 14.5192 12.9727 14.2441V12.252C12.9727 12.0854 12.8894 11.9299 12.7509 11.8376ZM6.49805 16.0039C5.70818 16.0039 5.03927 15.4707 4.82597 14.7422H8.17016C7.95683 15.4707 7.28792 16.0039 6.49805 16.0039ZM11.9766 13.7461C11.5143 13.7461 1.5636 13.7461 1.01953 13.7461V12.5185L1.79383 12.0023C1.93238 11.9099 2.01562 11.7544 2.01562 11.5879V6.83984C2.01562 4.36824 4.02644 2.35742 6.49805 2.35742C8.96965 2.35742 10.9805 4.36824 10.9805 6.83984V11.5879C10.9805 11.7544 11.0637 11.9099 11.2023 12.0023L11.9766 12.5185V13.7461Z" fill="#10C5A3"/>
</svg>
