<svg width="16" height="16" viewBox="0 0 16 16" fill="none" xmlns="http://www.w3.org/2000/svg">
<g clip-path="url(#clip0)">
<path d="M8.00006 5C6.34574 5 5 6.34574 5 8.00006C5 9.65438 6.34574 11.0001 8.00006 11.0001C9.65438 11.0001 11.0001 9.65441 11.0001 8.00006C11.0001 6.34571 9.65438 5 8.00006 5ZM8.00006 10.0001C6.897 10.0001 6.00003 9.10309 6.00003 8.00006C6.00003 6.897 6.89703 6.00003 8.00006 6.00003C9.10312 6.00003 10.0001 6.89703 10.0001 8.00006C10.0001 9.10309 9.10309 10.0001 8.00006 10.0001Z" fill="#00C58A"/>
<path d="M8.00001 2C4.42426 2 1.22012 4.34623 0.0267382 7.83849C-0.00891274 7.94346 -0.00891274 8.05675 0.0267382 8.16172C1.22012 11.654 4.42426 14.0002 8.00001 14.0002C11.5758 14.0002 14.7799 11.654 15.9733 8.16172C16.0089 8.05675 16.0089 7.94346 15.9733 7.83849C14.7799 4.34623 11.5757 2 8.00001 2ZM8.00001 13.0002C4.90721 13.0002 2.12736 10.9977 1.03016 8.00011C2.12736 5.00249 4.90718 3.00003 8.00001 3.00003C11.0928 3.00003 13.8727 5.00249 14.9699 8.00011C13.8727 10.9977 11.0928 13.0002 8.00001 13.0002Z" fill="#00C58A"/>
</g>
<defs>
<clipPath id="clip0">
<rect width="16" height="16" fill="white"/>
</clipPath>
</defs>
</svg>
