<svg width="18" height="14" viewBox="0 0 18 14" fill="none" xmlns="http://www.w3.org/2000/svg">
<path fill-rule="evenodd" clip-rule="evenodd" d="M18 7C18 7 14.625 0.8125 9 0.8125C3.375 0.8125 0 7 0 7C0 7 3.375 13.1875 9 13.1875C14.625 13.1875 18 7 18 7ZM1.31963 7C1.86359 7.82673 2.48923 8.59672 3.18712 9.29838C4.635 10.7485 6.615 12.0625 9 12.0625C11.385 12.0625 13.3639 10.7485 14.814 9.29838C15.5119 8.59672 16.1375 7.82673 16.6815 7C16.1375 6.17326 15.5119 5.40327 14.814 4.70162C13.3639 3.2515 11.3839 1.9375 9 1.9375C6.615 1.9375 4.63613 3.2515 3.186 4.70162C2.4881 5.40327 1.86245 6.17326 1.3185 7H1.31963Z" fill="#444444"/>
<path fill-rule="evenodd" clip-rule="evenodd" d="M9 4.1875C8.25408 4.1875 7.53871 4.48382 7.01126 5.01126C6.48382 5.53871 6.1875 6.25408 6.1875 7C6.1875 7.74592 6.48382 8.46129 7.01126 8.98874C7.53871 9.51618 8.25408 9.8125 9 9.8125C9.74592 9.8125 10.4613 9.51618 10.9887 8.98874C11.5162 8.46129 11.8125 7.74592 11.8125 7C11.8125 6.25408 11.5162 5.53871 10.9887 5.01126C10.4613 4.48382 9.74592 4.1875 9 4.1875ZM5.0625 7C5.0625 5.95571 5.47734 4.95419 6.21577 4.21577C6.95419 3.47734 7.95571 3.0625 9 3.0625C10.0443 3.0625 11.0458 3.47734 11.7842 4.21577C12.5227 4.95419 12.9375 5.95571 12.9375 7C12.9375 8.04429 12.5227 9.04581 11.7842 9.78423C11.0458 10.5227 10.0443 10.9375 9 10.9375C7.95571 10.9375 6.95419 10.5227 6.21577 9.78423C5.47734 9.04581 5.0625 8.04429 5.0625 7Z" fill="#444444"/>
</svg>
