<svg width="17" height="17" viewBox="0 0 17 17" fill="none" xmlns="http://www.w3.org/2000/svg">
<path d="M6.66937 7.51593L6.88579 7.29951L6.79149 7.00833C6.21716 5.23489 6.67817 3.28102 8.0035 1.95569C9.94441 0.014788 13.1034 0.0147627 15.0443 1.95566C16.9852 3.89656 16.9852 7.05565 15.0443 8.99651L15.0442 8.99664C13.7229 10.3189 11.8078 10.7474 10.0295 10.1709L9.74044 10.0772L9.52414 10.2906L8.24691 11.5509L8.2469 11.5509L8.24506 11.5528H7.33548H6.83548V12.0528V12.9778L6.08102 12.8901L5.57337 12.831L5.52546 13.3398L5.42688 14.3866L4.38007 14.4852L3.87156 14.5331L3.93026 15.0405L4.01773 15.7965L3.31469 16.5H0.5V13.6853L6.66937 7.51593ZM6.83548 12.9801L6.83534 12.9796C6.83535 12.9796 6.83536 12.9796 6.83537 12.9796L6.83548 12.9797V12.9801ZM13.3536 6.35355L13.3536 6.35354C14.1314 5.57561 14.1315 4.31159 13.3536 3.53363C12.5756 2.75568 11.3116 2.75568 10.5336 3.53363C9.75568 4.31157 9.75568 5.57561 10.5336 6.35355C11.3116 7.1315 12.5756 7.1315 13.3536 6.35355Z" stroke="#828282"/>
</svg>
