<svg width="20" height="20" viewBox="0 0 20 20" fill="none" xmlns="http://www.w3.org/2000/svg">
<g clip-path="url(#clip0)">
<path d="M17.0695 2.93003C13.1624 -0.977034 6.83813 -0.977621 2.93052 2.93003C-0.976546 6.83709 -0.977133 13.1614 2.93052 17.069C6.83758 20.976 13.1619 20.9766 17.0695 17.069C20.9765 13.162 20.9771 6.83768 17.0695 2.93003ZM9.99998 18.3549C5.39282 18.3549 1.6446 14.6066 1.6446 9.99949C1.6446 5.39233 5.39282 1.64415 9.99998 1.64415C14.6071 1.64415 18.3553 5.39237 18.3553 9.99953C18.3553 14.6067 14.6071 18.3549 9.99998 18.3549Z" fill="#828282"/>
<path d="M11.6689 6.25903C11.2153 6.25903 10.8477 6.6267 10.8477 7.08023V12.9198C10.8477 13.3734 11.2153 13.741 11.6689 13.741C12.1224 13.741 12.4901 13.3734 12.4901 12.9198V7.08023C12.4901 6.6267 12.1224 6.25903 11.6689 6.25903Z" fill="#828282"/>
<path d="M8.33291 6.25903C7.87938 6.25903 7.51172 6.6267 7.51172 7.08023V12.9198C7.51172 13.3734 7.87938 13.741 8.33291 13.741C8.78645 13.741 9.15411 13.3734 9.15411 12.9198V7.08023C9.15411 6.6267 8.78649 6.25903 8.33291 6.25903Z" fill="#828282"/>
</g>
<defs>
<clipPath id="clip0">
<rect width="20" height="20" fill="white"/>
</clipPath>
</defs>
</svg>
