<svg width="21" height="28" viewBox="0 0 21 28" fill="none" xmlns="http://www.w3.org/2000/svg">
<path d="M20.8148 6.03312L15.0962 0.314539C14.989 0.207316 14.8438 0.147003 14.6919 0.147003H2.6829C1.42137 0.147003 0.395508 1.17286 0.395508 2.43445V25.3087C0.395508 26.5703 1.42137 27.5961 2.68295 27.5961H18.695C19.9565 27.5961 20.9823 26.5703 20.9823 25.3087V6.43741C20.9823 6.28553 20.922 6.14035 20.8148 6.03312ZM15.2638 2.09938L19.03 5.86559H16.4075C15.777 5.86559 15.2638 5.35236 15.2638 4.72189V2.09938ZM19.8386 25.3087C19.8386 25.9391 19.3254 26.4524 18.695 26.4524H2.68295C2.05248 26.4524 1.53926 25.9391 1.53926 25.3087V2.43445C1.53926 1.80398 2.05248 1.29075 2.68295 1.29075H14.1201V4.72189C14.1201 5.98343 15.1459 7.00928 16.4075 7.00928H19.8386V25.3087Z" fill="#00C58A"/>
<path d="M13.6046 16.9346C13.0752 16.518 12.572 16.0897 12.237 15.7546C11.8014 15.319 11.4132 14.8968 11.076 14.4947C11.6021 12.8691 11.8327 12.0309 11.8327 11.5841C11.8327 9.68589 11.1469 9.29662 10.1171 9.29662C9.33471 9.29662 8.40155 9.70315 8.40155 11.6388C8.40155 12.4921 8.86899 13.5281 9.79545 14.7321C9.56873 15.424 9.30233 16.222 9.00302 17.1217C8.85891 17.5534 8.70258 17.9532 8.53724 18.3229C8.40268 18.3827 8.27197 18.4435 8.14577 18.5066C7.6912 18.734 7.25952 18.9383 6.85909 19.1282C5.03292 19.9927 3.82666 20.5646 3.82666 21.6937C3.82666 22.5136 4.71742 23.0212 5.54223 23.0212C6.60551 23.0212 8.21107 21.601 9.38382 19.2086C10.6012 18.7283 12.1147 18.3726 13.3092 18.1498C14.2664 18.8858 15.3236 19.59 15.8356 19.59C17.2536 19.59 17.5512 18.7702 17.5512 18.0827C17.5512 16.7307 16.0065 16.7307 15.2638 16.7307C15.0331 16.7308 14.4144 16.7989 13.6046 16.9346ZM5.54223 21.8775C5.21552 21.8775 4.99437 21.7233 4.97036 21.6937C4.97036 21.2883 6.1794 20.7153 7.34883 20.1614C7.42308 20.1262 7.49852 20.091 7.57502 20.0547C6.71611 21.3001 5.86669 21.8775 5.54223 21.8775ZM9.54524 11.6388C9.54524 10.4404 9.9172 10.4404 10.1171 10.4404C10.5215 10.4404 10.689 10.4404 10.689 11.5841C10.689 11.8253 10.5282 12.4284 10.2338 13.37C9.78478 12.6786 9.54524 12.0861 9.54524 11.6388ZM9.98363 17.7851C10.0194 17.6857 10.054 17.5852 10.0875 17.4836C10.2997 16.8469 10.4907 16.2751 10.6611 15.7602C10.8984 16.0215 11.1542 16.2891 11.4284 16.5632C11.5356 16.6705 11.8014 16.9117 12.1555 17.2138C11.4507 17.3674 10.7007 17.5578 9.98363 17.7851ZM16.4075 18.0828C16.4075 18.3397 16.4075 18.4463 15.877 18.4497C15.7212 18.4162 15.361 18.204 14.9164 17.9013C15.0778 17.8835 15.1968 17.8745 15.2638 17.8745C16.1087 17.8745 16.3483 17.9571 16.4075 18.0828Z" fill="#00C58A"/>
</svg>
