<svg width="16" height="16" viewBox="0 0 16 16" fill="none" xmlns="http://www.w3.org/2000/svg">
<path fill-rule="evenodd" clip-rule="evenodd" d="M14.75 8.0058C14.3358 8.0058 14 8.34159 14 8.7558V13.2558C14 13.67 13.6642 14.0058 13.25 14.0058H2.75C2.33579 14.0058 2 13.67 2 13.2558V2.7558C2 2.34158 2.33579 2.0058 2.75 2.0058H7.25C7.66421 2.0058 8 1.67001 8 1.2558C8 0.841585 7.66421 0.505798 7.25 0.505798H2.75C1.50736 0.505798 0.5 1.51316 0.5 2.7558V13.2558C0.5 14.4984 1.50736 15.5058 2.75 15.5058H13.25C14.4926 15.5058 15.5 14.4984 15.5 13.2558V8.7558C15.5 8.34159 15.1642 8.0058 14.75 8.0058ZM3.50013 8.57435V11.7543C3.50013 12.1686 3.83591 12.5043 4.25013 12.5043H7.43013C7.62948 12.5055 7.82109 12.4272 7.96263 12.2868L13.1526 7.08935L15.2826 5.00435C15.4246 4.86352 15.5045 4.67183 15.5045 4.47185C15.5045 4.27187 15.4246 4.08017 15.2826 3.93935L12.1026 0.721849C11.9618 0.579864 11.7701 0.5 11.5701 0.5C11.3701 0.5 11.1785 0.579864 11.0376 0.721849L8.92263 2.84435L3.71763 8.04185C3.57724 8.18339 3.49897 8.375 3.50013 8.57435ZM11.57 2.31185L13.6925 4.43435L12.6275 5.49935L10.505 3.37685L11.57 2.31185ZM5 8.88183L9.4475 4.43433L11.57 6.55683L7.1225 11.0043H5V8.88183Z" fill="#10C5A3"/>
</svg>
