<svg width="16" height="16" viewBox="0 0 16 16" fill="none" xmlns="http://www.w3.org/2000/svg">
<path d="M2.34313 10.3431C3.21447 9.47181 4.25159 8.82678 5.38316 8.43631C4.17122 7.60159 3.375 6.20463 3.375 4.625C3.375 2.07478 5.44978 0 8 0C10.5502 0 12.625 2.07478 12.625 4.625C12.625 6.20463 11.8288 7.60159 10.6168 8.43631C11.7484 8.82678 12.7855 9.47181 13.6568 10.3431C15.1678 11.8542 16 13.8631 16 16H14.75C14.75 12.278 11.722 9.25 8 9.25C4.27803 9.25 1.25 12.278 1.25 16H0C0 13.8631 0.832156 11.8542 2.34313 10.3431ZM8 8C9.86097 8 11.375 6.486 11.375 4.625C11.375 2.764 9.86097 1.25 8 1.25C6.13903 1.25 4.625 2.764 4.625 4.625C4.625 6.486 6.13903 8 8 8Z" fill="#10BF8B"/>
</svg>
