<svg width="20" height="20" viewBox="0 0 20 20" fill="none" xmlns="http://www.w3.org/2000/svg">
<g clip-path="url(#clip0)">
<path d="M17.0695 2.93003C13.1624 -0.977034 6.83813 -0.977621 2.93052 2.93003C-0.976546 6.83709 -0.977133 13.1614 2.93052 17.069C6.83758 20.976 13.1619 20.9766 17.0695 17.069C20.9765 13.162 20.9771 6.83768 17.0695 2.93003ZM9.99998 18.3549C5.39282 18.3549 1.6446 14.6066 1.6446 9.99949C1.6446 5.39233 5.39282 1.64415 9.99998 1.64415C14.6071 1.64415 18.3553 5.39237 18.3553 9.99953C18.3553 14.6067 14.6071 18.3549 9.99998 18.3549Z" fill="#10C5A3"/>
<path d="M13.5 9.13397C14.1667 9.51887 14.1667 10.4811 13.5 10.866L9 13.4641C8.33333 13.849 7.5 13.3679 7.5 12.5981L7.5 7.40192C7.5 6.63212 8.33333 6.151 9 6.5359L13.5 9.13397Z" fill="#10C5A3"/>
</g>
<defs>
<clipPath id="clip0">
<rect width="20" height="20" fill="white"/>
</clipPath>
</defs>
</svg>
