<svg width="14" height="15" viewBox="0 0 14 15" fill="none" xmlns="http://www.w3.org/2000/svg">
<path fill-rule="evenodd" clip-rule="evenodd" d="M10.75 2.5V1.75C10.75 0.921572 10.0785 0.25 9.25 0.25H4.75C3.92157 0.25 3.25 0.921572 3.25 1.75V2.5H1C0.58579 2.5 0.25 2.83579 0.25 3.25C0.25 3.66421 0.58579 4 1 4H1.75V12.25C1.75 13.4927 2.75736 14.5 4 14.5H10C11.2427 14.5 12.25 13.4927 12.25 12.25V4H13C13.4142 4 13.75 3.66421 13.75 3.25C13.75 2.83579 13.4142 2.5 13 2.5H10.75ZM9.25 1.75H4.75V2.5H9.25V1.75ZM10.75 4H3.25V12.25C3.25 12.6642 3.58579 13 4 13H10C10.4142 13 10.75 12.6642 10.75 12.25V4Z" fill="#444444"/>
</svg>
