<svg width="14" height="14" viewBox="0 0 14 14" fill="none" xmlns="http://www.w3.org/2000/svg">
<path d="M12.1406 8.5668H11.9906V8.7168V11.7031C11.9906 11.8572 11.865 11.9828 11.7109 11.9828H3.28906C3.13498 11.9828 3.00937 11.8572 3.00937 11.7031V8.7168V8.5668H2.85938H2H1.85V8.7168V11.7031C1.85 12.4968 2.49543 13.1422 3.28906 13.1422H11.7109C12.5046 13.1422 13.15 12.4968 13.15 11.7031V8.7168V8.5668H13H12.1406Z" fill="#0E1821" stroke="#0E1821" stroke-width="0.3"/>
<path d="M7.60631 1.90175L7.50024 1.79568L7.39418 1.90175L4.72401 4.57191L4.61795 4.67798L4.72401 4.78404L5.33168 5.39171L5.43774 5.49777L5.54381 5.39171L6.92056 4.01496V10.3499V10.4999H7.07056H7.92993H8.07993V10.3499V4.01496L9.45668 5.39171L9.56274 5.49777L9.66881 5.39171L10.2765 4.78404L10.3825 4.67798L10.2765 4.57191L7.60631 1.90175Z" fill="#0E1821" stroke="#0E1821" stroke-width="0.3"/>
</svg>
