<svg width="27" height="28" viewBox="0 0 27 28" fill="none" xmlns="http://www.w3.org/2000/svg">
<path d="M26.3664 7.57526L19.3734 0.308803C19.2738 0.20544 19.1365 0.147003 18.993 0.147003H8.5704C7.40398 0.147003 6.455 1.09561 6.455 2.26155V9.64863H2.2311C1.35842 9.64863 0.648438 10.3584 0.648438 11.2309V19.1517C0.648438 20.0241 1.35842 20.7338 2.2311 20.7338H6.455V25.4853C6.455 26.6492 7.40398 27.5961 8.5704 27.5961H24.3986C25.565 27.5961 26.514 26.6497 26.514 25.4865V7.94132C26.514 7.80482 26.4611 7.67364 26.3664 7.57526ZM19.1238 1.57205L24.8645 7.53714H19.1238V1.57205ZM2.2311 19.6781C1.94053 19.6781 1.70421 19.442 1.70421 19.1517V11.2309C1.70421 10.9406 1.94058 10.7044 2.2311 10.7044H16.4854C16.7759 10.7044 17.0123 10.9406 17.0123 11.2309V19.1517C17.0123 19.442 16.7759 19.6781 16.4854 19.6781H2.2311ZM25.4582 25.4865C25.4582 26.0676 24.9828 26.5404 24.3985 26.5404H8.5704C7.98609 26.5404 7.51072 26.0671 7.51072 25.4853V20.7338H16.4853C17.3581 20.7338 18.0681 20.0241 18.0681 19.1517V11.2309C18.0681 10.3584 17.3581 9.64863 16.4853 9.64863H7.51072V2.26155C7.51072 1.67767 7.98609 1.20272 8.5704 1.20272H18.0681V8.065C18.0681 8.35654 18.3044 8.59286 18.5959 8.59286H25.4582V25.4865Z" fill="#10BF8B"/>
<path d="M14.5371 15.5238C14.4165 15.3289 14.2494 15.1753 14.0361 15.0628C13.8226 14.9505 13.4933 14.8418 13.0479 14.7366C12.6025 14.6314 12.3221 14.5304 12.2066 14.4335C12.1158 14.3572 12.0705 14.2653 12.0705 14.1582C12.0705 14.0406 12.1189 13.9468 12.2159 13.8767C12.3664 13.7674 12.5747 13.7128 12.8406 13.7128C13.0984 13.7128 13.2917 13.7639 13.4206 13.8659C13.5494 13.9679 13.6334 14.1355 13.6726 14.3685L14.5881 14.3283C14.5737 13.9117 14.4228 13.5787 14.1351 13.3293C13.8474 13.0797 13.4191 12.955 12.85 12.955C12.5015 12.955 12.2041 13.0075 11.9577 13.1128C11.7113 13.218 11.5225 13.371 11.3916 13.572C11.2607 13.7731 11.1951 13.9892 11.1951 14.2201C11.1951 14.5788 11.3344 14.883 11.6128 15.1325C11.8108 15.3098 12.1551 15.4593 12.6459 15.5809C13.0273 15.6758 13.2717 15.7418 13.3788 15.7789C13.5356 15.8346 13.6453 15.9 13.7082 15.9753C13.7711 16.0506 13.8025 16.1418 13.8025 16.2491C13.8025 16.4161 13.7278 16.562 13.5783 16.6867C13.4288 16.8114 13.2067 16.8738 12.9118 16.8738C12.6334 16.8738 12.4123 16.8037 12.2484 16.6634C12.0845 16.5233 11.9758 16.3037 11.9221 16.0046L11.0312 16.0912C11.091 16.5985 11.2746 16.9847 11.5818 17.2496C11.8891 17.5144 12.3293 17.647 12.9026 17.647C13.2963 17.647 13.6254 17.5918 13.8893 17.4815C14.1532 17.3713 14.3572 17.2026 14.5016 16.9758C14.646 16.749 14.7182 16.5057 14.7182 16.2458C14.7181 15.9593 14.6577 15.7186 14.5371 15.5238Z" fill="#10BF8B"/>
<path d="M8.33262 16.8027V13.0695H7.41699V17.5666H10.6091V16.8027H8.33262Z" fill="#10BF8B"/>
<path d="M5.37265 15.2346L6.78311 13.0324H5.72225L4.83149 14.4892L3.92208 13.0324H2.85199L4.25608 15.2006L2.70654 17.5667H3.80451L4.81289 15.9985L5.81805 17.5667H6.92223L5.37265 15.2346Z" fill="#10BF8B"/>
</svg>
